<?xml version="1.0" standalone="no"?>
<!DOCTYPE svg PUBLIC "-//W3C//DTD SVG 20010904//EN"
 "http://www.w3.org/TR/2001/REC-SVG-20010904/DTD/svg10.dtd">
<svg version="1.0" xmlns="http://www.w3.org/2000/svg"
 width="601.000000pt" height="351.000000pt" viewBox="0 0 601.000000 351.000000"
 preserveAspectRatio="xMidYMid meet">

<g transform="translate(0.000000,351.000000) scale(0.100000,-0.100000)"
fill="#0000001F" stroke="none">
<path d="M390 3411 c0 -6 5 -21 11 -35 10 -22 13 -23 27 -10 8 8 21 13 28 10
29 -11 12 5 -26 24 -22 11 -40 16 -40 11z m35 -20 c3 -5 1 -12 -4 -15 -5 -3
-11 1 -15 9 -6 16 9 21 19 6z"/>
<path d="M1070 3408 c1 -7 10 -29 21 -48 11 -19 18 -27 15 -18 -6 19 18 43 34
33 5 -3 10 -4 10 -1 0 3 -18 15 -40 26 -28 14 -40 17 -40 8z m35 -17 c3 -5 1
-12 -4 -15 -5 -3 -11 1 -15 9 -6 16 9 21 19 6z"/>
<path d="M1750 3411 c0 -6 5 -21 11 -35 10 -22 13 -23 27 -10 8 8 21 13 28 10
29 -11 12 5 -26 24 -22 11 -40 16 -40 11z m35 -20 c3 -5 1 -12 -4 -15 -5 -3
-11 1 -15 9 -6 16 9 21 19 6z"/>
<path d="M2430 3408 c1 -7 10 -29 21 -48 11 -19 18 -27 15 -18 -6 19 18 43 34
33 5 -3 10 -4 10 -1 0 3 -18 15 -40 26 -28 14 -40 17 -40 8z m35 -17 c3 -5 1
-12 -4 -15 -5 -3 -11 1 -15 9 -6 16 9 21 19 6z"/>
<path d="M3110 3411 c0 -6 5 -21 11 -35 10 -22 13 -23 27 -10 8 8 21 13 28 10
29 -11 12 5 -26 24 -22 11 -40 16 -40 11z m35 -20 c3 -5 1 -12 -4 -15 -5 -3
-11 1 -15 9 -6 16 9 21 19 6z"/>
<path d="M3790 3408 c1 -7 10 -29 21 -48 11 -19 18 -27 15 -18 -6 19 18 43 34
33 5 -3 10 -4 10 -1 0 3 -18 15 -40 26 -28 14 -40 17 -40 8z m35 -17 c3 -5 1
-12 -4 -15 -5 -3 -11 1 -15 9 -6 16 9 21 19 6z"/>
<path d="M4470 3411 c0 -6 5 -21 11 -35 10 -22 13 -23 27 -10 8 8 21 13 28 10
29 -11 12 5 -26 24 -22 11 -40 16 -40 11z m35 -20 c3 -5 1 -12 -4 -15 -5 -3
-11 1 -15 9 -6 16 9 21 19 6z"/>
<path d="M5150 3408 c1 -7 10 -29 21 -48 11 -19 18 -27 15 -18 -6 19 18 43 34
33 5 -3 10 -4 10 -1 0 3 -18 15 -40 26 -28 14 -40 17 -40 8z m35 -17 c3 -5 1
-12 -4 -15 -5 -3 -11 1 -15 9 -6 16 9 21 19 6z"/>
<path d="M5830 3411 c0 -6 5 -21 11 -35 10 -22 13 -23 27 -10 8 8 21 13 28 10
29 -11 12 5 -26 24 -22 11 -40 16 -40 11z m35 -20 c3 -5 1 -12 -4 -15 -5 -3
-11 1 -15 9 -6 16 9 21 19 6z"/>
<path d="M304 3343 c-15 -20 -23 -34 -17 -30 5 4 21 -5 33 -18 13 -14 28 -25
34 -25 5 0 -3 13 -19 30 -34 36 -26 53 10 20 14 -13 28 -21 31 -17 4 4 -1 9
-10 13 -26 10 -8 25 22 18 15 -4 24 -3 20 1 -4 4 -22 8 -40 10 -17 1 -34 8
-36 15 -3 8 2 10 18 5 15 -5 20 -4 16 4 -13 20 -33 11 -62 -26z"/>
<path d="M984 3343 c-15 -20 -23 -34 -17 -30 5 4 21 -5 33 -18 13 -14 28 -25
34 -25 5 0 -3 13 -19 30 -34 36 -26 53 10 20 14 -13 28 -21 31 -17 4 4 -1 9
-10 13 -26 10 -19 27 10 20 17 -5 23 -3 19 4 -4 6 -18 10 -33 8 -15 -2 -27 3
-30 11 -3 10 2 11 18 6 15 -5 20 -4 16 4 -13 20 -33 11 -62 -26z"/>
<path d="M1664 3343 c-15 -20 -23 -34 -17 -30 5 4 21 -5 33 -18 13 -14 28 -25
34 -25 5 0 -3 13 -19 30 -34 36 -26 53 10 20 14 -13 28 -21 31 -17 4 4 -1 9
-10 13 -26 10 -8 25 22 18 15 -4 24 -3 20 1 -4 4 -22 8 -40 10 -17 1 -34 8
-36 15 -3 8 2 10 18 5 15 -5 20 -4 16 4 -13 20 -33 11 -62 -26z"/>
<path d="M2344 3343 c-15 -20 -23 -34 -17 -30 5 4 21 -5 33 -18 13 -14 28 -25
34 -25 5 0 -3 13 -19 30 -33 35 -26 54 8 22 30 -28 46 -29 21 -1 l-19 22 28
-7 c20 -5 27 -3 22 4 -4 6 -18 10 -33 8 -15 -2 -27 3 -30 11 -3 10 2 11 18 6
15 -5 20 -4 16 4 -13 20 -33 11 -62 -26z"/>
<path d="M3024 3343 c-15 -20 -23 -34 -17 -30 5 4 21 -5 33 -18 13 -14 28 -25
34 -25 5 0 -3 13 -19 30 -34 36 -26 53 10 20 14 -13 28 -21 31 -17 4 4 -1 9
-10 13 -26 10 -8 25 22 18 15 -4 24 -3 20 1 -4 4 -22 8 -40 10 -17 1 -34 8
-36 15 -3 8 2 10 18 5 15 -5 20 -4 16 4 -13 20 -33 11 -62 -26z"/>
<path d="M3704 3343 c-15 -20 -23 -34 -17 -30 5 4 21 -5 33 -18 13 -14 28 -25
34 -25 5 0 -3 13 -19 30 -34 36 -26 53 10 20 14 -13 28 -21 31 -17 4 4 -1 9
-10 13 -26 10 -19 27 10 20 17 -5 23 -3 19 4 -4 6 -18 10 -33 8 -15 -2 -27 3
-30 11 -3 10 2 11 18 6 15 -5 20 -4 16 4 -13 20 -33 11 -62 -26z"/>
<path d="M4384 3343 c-15 -20 -23 -34 -17 -30 5 4 21 -5 33 -18 13 -14 28 -25
34 -25 5 0 -3 13 -19 30 -34 36 -26 53 10 20 14 -13 28 -21 31 -17 4 4 -1 9
-10 13 -26 10 -8 25 22 18 15 -4 24 -3 20 1 -4 4 -22 8 -40 10 -17 1 -34 8
-36 15 -3 8 2 10 18 5 15 -5 20 -4 16 4 -13 20 -33 11 -62 -26z"/>
<path d="M5064 3343 c-15 -20 -23 -34 -17 -30 5 4 21 -5 33 -18 13 -14 28 -25
34 -25 5 0 -3 13 -19 30 -33 35 -26 54 8 22 30 -28 46 -29 21 -1 l-19 22 28
-7 c20 -5 27 -3 22 4 -4 6 -18 10 -33 8 -15 -2 -27 3 -30 11 -3 10 2 11 18 6
15 -5 20 -4 16 4 -13 20 -33 11 -62 -26z"/>
<path d="M5744 3343 c-15 -20 -23 -34 -17 -30 5 4 21 -5 33 -18 13 -14 28 -25
34 -25 5 0 -3 13 -19 30 -34 36 -26 53 10 20 14 -13 28 -21 31 -17 4 4 -1 9
-10 13 -26 10 -8 25 22 18 15 -4 24 -3 20 1 -4 4 -22 8 -40 10 -17 1 -34 8
-36 15 -3 8 2 10 18 5 15 -5 20 -4 16 4 -13 20 -33 11 -62 -26z"/>
<path d="M935 3290 c-3 -6 1 -7 9 -4 18 7 21 14 7 14 -6 0 -13 -4 -16 -10z"/>
<path d="M1614 3285 c-9 -23 5 -36 32 -29 28 7 33 -10 7 -26 -16 -10 -16 -10
2 -8 12 2 20 11 20 23 0 16 -6 20 -29 18 -23 -2 -27 1 -23 17 6 23 -1 27 -9 5z"/>
<path d="M2295 3290 c-3 -6 1 -7 9 -4 18 7 21 14 7 14 -6 0 -13 -4 -16 -10z"/>
<path d="M3655 3290 c-3 -6 1 -7 9 -4 18 7 21 14 7 14 -6 0 -13 -4 -16 -10z"/>
<path d="M4334 3285 c-9 -23 5 -36 32 -29 28 7 33 -10 7 -26 -16 -10 -16 -10
2 -8 12 2 20 11 20 23 0 16 -6 20 -29 18 -23 -2 -27 1 -23 17 6 23 -1 27 -9 5z"/>
<path d="M5015 3290 c-3 -6 1 -7 9 -4 18 7 21 14 7 14 -6 0 -13 -4 -16 -10z"/>
<path d="M256 3258 c3 -5 16 -5 30 -2 28 7 33 -10 7 -26 -16 -10 -16 -10 2 -8
12 2 20 11 20 23 0 16 -7 20 -32 20 -17 1 -29 -3 -27 -7z"/>
<path d="M936 3258 c3 -5 16 -5 30 -2 28 7 33 -10 7 -25 -17 -10 -17 -10 0
-11 9 0 18 5 19 10 4 31 1 35 -29 35 -17 1 -29 -3 -27 -7z"/>
<path d="M2296 3258 c3 -5 16 -5 30 -2 28 7 33 -10 7 -25 -17 -10 -17 -10 0
-11 9 0 18 5 19 10 4 31 1 35 -29 35 -17 1 -29 -3 -27 -7z"/>
<path d="M2976 3258 c3 -5 16 -5 30 -2 28 7 33 -10 7 -26 -16 -10 -16 -10 2
-8 12 2 20 11 20 23 0 16 -7 20 -32 20 -17 1 -29 -3 -27 -7z"/>
<path d="M3656 3258 c3 -5 16 -5 30 -2 28 7 33 -10 7 -25 -17 -10 -17 -10 0
-11 9 0 18 5 19 10 4 31 1 35 -29 35 -17 1 -29 -3 -27 -7z"/>
<path d="M5016 3258 c3 -5 16 -5 30 -2 28 7 33 -10 7 -25 -17 -10 -17 -10 0
-11 9 0 18 5 19 10 4 31 1 35 -29 35 -17 1 -29 -3 -27 -7z"/>
<path d="M5696 3258 c3 -5 16 -5 30 -2 28 7 33 -10 7 -26 -16 -10 -16 -10 2
-8 12 2 20 11 20 23 0 16 -7 20 -32 20 -17 1 -29 -3 -27 -7z"/>
<path d="M201 3237 c-8 -10 -4 -20 17 -40 24 -23 29 -24 46 -11 11 8 15 14 9
14 -7 0 -15 -5 -19 -11 -4 -8 -9 -7 -15 2 -4 8 -3 20 4 29 9 12 9 13 -2 3 -19
-16 -45 -5 -30 13 6 8 9 14 6 14 -2 0 -10 -6 -16 -13z"/>
<path d="M881 3237 c-8 -10 -4 -20 19 -42 27 -25 30 -26 45 -11 9 9 13 16 8
16 -5 0 -14 -5 -20 -11 -17 -17 -27 9 -11 29 11 15 11 15 -2 5 -9 -7 -21 -8
-29 -4 -11 7 -9 11 5 20 11 6 14 11 8 11 -6 0 -17 -6 -23 -13z"/>
<path d="M1561 3237 c-8 -10 -4 -20 17 -40 24 -23 29 -24 46 -11 11 8 15 14 9
14 -7 0 -15 -5 -19 -11 -4 -8 -9 -7 -15 2 -4 8 -3 20 4 29 9 12 9 13 -2 3 -19
-16 -45 -5 -30 13 6 8 9 14 6 14 -2 0 -10 -6 -16 -13z"/>
<path d="M2241 3237 c-8 -10 -4 -20 19 -42 27 -25 30 -26 45 -11 9 9 13 16 8
16 -5 0 -14 -5 -20 -11 -17 -17 -27 9 -11 29 11 15 11 15 -2 5 -9 -7 -21 -8
-29 -4 -11 7 -9 11 5 20 11 6 14 11 8 11 -6 0 -17 -6 -23 -13z"/>
<path d="M2921 3237 c-8 -10 -4 -20 17 -40 24 -23 29 -24 46 -11 11 8 15 14 9
14 -7 0 -15 -5 -19 -11 -4 -8 -9 -7 -15 2 -4 8 -3 20 4 29 9 12 9 13 -2 3 -19
-16 -45 -5 -30 13 6 8 9 14 6 14 -2 0 -10 -6 -16 -13z"/>
<path d="M3601 3237 c-8 -10 -4 -20 19 -42 27 -25 30 -26 45 -11 9 9 13 16 8
16 -5 0 -14 -5 -20 -11 -17 -17 -27 9 -11 29 11 15 11 15 -2 5 -9 -7 -21 -8
-29 -4 -11 7 -9 11 5 20 11 6 14 11 8 11 -6 0 -17 -6 -23 -13z"/>
<path d="M4281 3237 c-8 -10 -4 -20 17 -40 24 -23 29 -24 46 -11 11 8 15 14 9
14 -7 0 -15 -5 -19 -11 -4 -8 -9 -7 -15 2 -4 8 -3 20 4 29 9 12 9 13 -2 3 -19
-16 -45 -5 -30 13 6 8 9 14 6 14 -2 0 -10 -6 -16 -13z"/>
<path d="M4961 3237 c-8 -10 -4 -20 19 -42 27 -25 30 -26 45 -11 9 9 13 16 8
16 -5 0 -14 -5 -20 -11 -17 -17 -27 9 -11 29 11 15 11 15 -2 5 -9 -7 -21 -8
-29 -4 -11 7 -9 11 5 20 11 6 14 11 8 11 -6 0 -17 -6 -23 -13z"/>
<path d="M5641 3237 c-8 -10 -4 -20 17 -40 24 -23 29 -24 46 -11 11 8 15 14 9
14 -7 0 -15 -5 -19 -11 -4 -8 -9 -7 -15 2 -4 8 -3 20 4 29 9 12 9 13 -2 3 -19
-16 -45 -5 -30 13 6 8 9 14 6 14 -2 0 -10 -6 -16 -13z"/>
<path d="M189 3186 c24 -25 21 -46 -5 -46 -8 0 -17 6 -20 14 -3 8 -13 17 -22
21 -11 4 -8 -3 8 -20 27 -28 63 -30 68 -3 2 9 -6 26 -17 37 -29 29 -39 26 -12
-3z"/>
<path d="M869 3186 c24 -25 21 -46 -5 -46 -8 0 -17 6 -20 14 -3 8 -13 17 -22
21 -11 4 -9 -2 7 -19 30 -31 57 -33 66 -5 7 21 -18 59 -38 59 -6 0 0 -11 12
-24z"/>
<path d="M1549 3186 c24 -25 21 -46 -5 -46 -8 0 -17 6 -20 14 -3 8 -13 17 -22
21 -11 4 -8 -3 8 -20 27 -28 63 -30 68 -3 2 9 -6 26 -17 37 -29 29 -39 26 -12
-3z"/>
<path d="M2229 3186 c24 -25 21 -46 -5 -46 -8 0 -17 6 -20 14 -3 8 -13 17 -22
21 -11 4 -9 -2 7 -19 30 -31 57 -33 66 -5 5 14 0 27 -14 40 -29 27 -39 23 -12
-5z"/>
<path d="M2909 3186 c24 -25 21 -46 -5 -46 -8 0 -17 6 -20 14 -3 8 -13 17 -22
21 -11 4 -8 -3 8 -20 27 -28 63 -30 68 -3 2 9 -6 26 -17 37 -29 29 -39 26 -12
-3z"/>
<path d="M3589 3186 c24 -25 21 -46 -5 -46 -8 0 -17 6 -20 14 -3 8 -13 17 -22
21 -11 4 -9 -2 7 -19 30 -31 57 -33 66 -5 7 21 -18 59 -38 59 -6 0 0 -11 12
-24z"/>
<path d="M4269 3186 c24 -25 21 -46 -5 -46 -8 0 -17 6 -20 14 -3 8 -13 17 -22
21 -11 4 -8 -3 8 -20 27 -28 63 -30 68 -3 2 9 -6 26 -17 37 -29 29 -39 26 -12
-3z"/>
<path d="M4949 3186 c24 -25 21 -46 -5 -46 -8 0 -17 6 -20 14 -3 8 -13 17 -22
21 -11 4 -9 -2 7 -19 30 -31 57 -33 66 -5 5 14 0 27 -14 40 -29 27 -39 23 -12
-5z"/>
<path d="M5629 3186 c24 -25 21 -46 -5 -46 -8 0 -17 6 -20 14 -3 8 -13 17 -22
21 -11 4 -8 -3 8 -20 27 -28 63 -30 68 -3 2 9 -6 26 -17 37 -29 29 -39 26 -12
-3z"/>
<path d="M125 3124 c14 -34 14 -36 -3 -29 -9 4 -28 10 -42 13 l-25 5 29 -32
c17 -17 35 -31 40 -31 6 0 3 7 -6 14 -26 19 -22 27 9 20 22 -6 25 -4 20 10
-21 50 -21 51 9 26 l29 -25 -29 33 c-39 42 -50 41 -31 -4z"/>
<path d="M801 3130 c13 -35 24 -41 13 -7 -6 22 -6 22 22 -3 l29 -25 -29 33
c-37 40 -48 41 -35 2z"/>
<path d="M1485 3124 c14 -34 14 -36 -3 -29 -9 4 -28 10 -42 13 l-25 5 29 -32
c17 -17 35 -31 40 -31 6 0 3 7 -6 14 -26 19 -22 27 9 20 22 -6 25 -4 20 10
-21 50 -21 51 9 26 l29 -25 -29 33 c-39 42 -50 41 -31 -4z"/>
<path d="M2161 3130 c13 -35 24 -41 13 -7 -6 22 -6 22 22 -3 l29 -25 -29 33
c-37 40 -48 41 -35 2z"/>
<path d="M2845 3124 c14 -34 14 -36 -3 -29 -9 4 -28 10 -42 13 l-25 5 29 -32
c17 -17 35 -31 40 -31 6 0 3 7 -6 14 -26 19 -22 27 9 20 22 -6 25 -4 20 10
-21 50 -21 51 9 26 l29 -25 -29 33 c-39 42 -50 41 -31 -4z"/>
<path d="M3521 3130 c13 -35 24 -41 13 -7 -6 22 -6 22 22 -3 l29 -25 -29 33
c-37 40 -48 41 -35 2z"/>
<path d="M4205 3124 c14 -34 14 -36 -3 -29 -9 4 -28 10 -42 13 l-25 5 29 -32
c17 -17 35 -31 40 -31 6 0 3 7 -6 14 -26 19 -22 27 9 20 22 -6 25 -4 20 10
-21 50 -21 51 9 26 l29 -25 -29 33 c-39 42 -50 41 -31 -4z"/>
<path d="M4881 3130 c13 -35 24 -41 13 -7 -6 22 -6 22 22 -3 l29 -25 -29 33
c-37 40 -48 41 -35 2z"/>
<path d="M5565 3124 c14 -34 14 -36 -3 -29 -9 4 -28 10 -42 13 l-25 5 29 -32
c17 -17 35 -31 40 -31 6 0 3 7 -6 14 -26 19 -22 27 9 20 22 -6 25 -4 20 10
-21 50 -21 51 9 26 l29 -25 -29 33 c-39 42 -50 41 -31 -4z"/>
<path d="M740 3107 c0 -2 14 -16 31 -33 19 -18 28 -22 24 -11 -4 9 -11 17 -16
17 -5 0 -9 5 -9 10 0 7 6 7 19 0 11 -5 26 -10 33 -10 17 1 -50 30 -68 30 -8 0
-14 -1 -14 -3z"/>
<path d="M2100 3107 c0 -2 14 -16 31 -33 19 -18 28 -22 24 -11 -4 9 -11 17
-16 17 -5 0 -9 5 -9 10 0 7 6 7 19 0 11 -5 26 -10 33 -10 17 1 -50 30 -68 30
-8 0 -14 -1 -14 -3z"/>
<path d="M3460 3107 c0 -2 14 -16 31 -33 19 -18 28 -22 24 -11 -4 9 -11 17
-16 17 -5 0 -9 5 -9 10 0 7 6 7 19 0 11 -5 26 -10 33 -10 17 1 -50 30 -68 30
-8 0 -14 -1 -14 -3z"/>
<path d="M4820 3107 c0 -2 14 -16 31 -33 19 -18 28 -22 24 -11 -4 9 -11 17
-16 17 -5 0 -9 5 -9 10 0 7 6 7 19 0 11 -5 26 -10 33 -10 17 1 -50 30 -68 30
-8 0 -14 -1 -14 -3z"/>
<path d="M390 2911 c0 -6 5 -21 11 -35 10 -22 13 -23 27 -10 8 8 21 13 28 10
29 -11 12 5 -26 24 -22 11 -40 16 -40 11z m38 -20 c11 -7 11 -9 -1 -14 -9 -3
-18 1 -21 9 -6 16 2 18 22 5z"/>
<path d="M1070 2908 c1 -7 7 -24 15 -38 12 -23 14 -23 21 -7 4 12 13 17 25 14
30 -8 22 1 -21 23 -28 14 -40 17 -40 8z m35 -17 c3 -5 1 -12 -4 -15 -5 -3 -11
1 -15 9 -6 16 9 21 19 6z"/>
<path d="M1750 2911 c0 -6 5 -21 11 -35 10 -22 13 -23 27 -10 8 8 21 13 28 10
29 -11 12 5 -26 24 -22 11 -40 16 -40 11z m38 -20 c11 -7 11 -9 -1 -14 -9 -3
-18 1 -21 9 -6 16 2 18 22 5z"/>
<path d="M2430 2908 c1 -7 7 -24 15 -38 12 -23 14 -23 21 -7 4 12 13 17 25 14
30 -8 22 1 -21 23 -28 14 -40 17 -40 8z m35 -17 c3 -5 1 -12 -4 -15 -5 -3 -11
1 -15 9 -6 16 9 21 19 6z"/>
<path d="M3110 2911 c0 -6 5 -21 11 -35 10 -22 13 -23 27 -10 8 8 21 13 28 10
29 -11 12 5 -26 24 -22 11 -40 16 -40 11z m38 -20 c11 -7 11 -9 -1 -14 -9 -3
-18 1 -21 9 -6 16 2 18 22 5z"/>
<path d="M3790 2908 c1 -7 7 -24 15 -38 12 -23 14 -23 21 -7 4 12 13 17 25 14
30 -8 22 1 -21 23 -28 14 -40 17 -40 8z m35 -17 c3 -5 1 -12 -4 -15 -5 -3 -11
1 -15 9 -6 16 9 21 19 6z"/>
<path d="M4470 2911 c0 -6 5 -21 11 -35 10 -22 13 -23 27 -10 8 8 21 13 28 10
29 -11 12 5 -26 24 -22 11 -40 16 -40 11z m38 -20 c11 -7 11 -9 -1 -14 -9 -3
-18 1 -21 9 -6 16 2 18 22 5z"/>
<path d="M5150 2908 c1 -7 7 -24 15 -38 12 -23 14 -23 21 -7 4 12 13 17 25 14
30 -8 22 1 -21 23 -28 14 -40 17 -40 8z m35 -17 c3 -5 1 -12 -4 -15 -5 -3 -11
1 -15 9 -6 16 9 21 19 6z"/>
<path d="M5830 2911 c0 -6 5 -21 11 -35 10 -22 13 -23 27 -10 8 8 21 13 28 10
29 -11 12 5 -26 24 -22 11 -40 16 -40 11z m38 -20 c11 -7 11 -9 -1 -14 -9 -3
-18 1 -21 9 -6 16 2 18 22 5z"/>
<path d="M304 2843 c-15 -21 -24 -35 -19 -30 5 4 21 -5 37 -20 33 -31 38 -20
6 14 -29 31 -14 42 17 13 14 -13 28 -21 31 -17 4 4 -1 9 -10 13 -29 11 -17 26
17 19 l32 -6 -27 16 c-16 9 -28 20 -28 25 0 22 -29 8 -56 -27z m47 14 c-1 -12
-15 -9 -19 4 -3 6 1 10 8 8 6 -3 11 -8 11 -12z"/>
<path d="M984 2843 c-15 -21 -24 -35 -19 -30 5 4 21 -5 37 -20 33 -31 38 -20
6 14 -28 30 -15 43 15 15 13 -12 27 -22 33 -22 5 0 1 5 -8 11 -30 17 -21 31
15 24 26 -5 29 -4 14 5 -10 7 -29 9 -43 6 -18 -5 -24 -2 -24 9 0 12 6 15 21
10 15 -5 19 -4 15 4 -13 20 -33 11 -62 -26z"/>
<path d="M1664 2843 c-15 -21 -24 -35 -19 -30 5 4 21 -5 37 -20 33 -31 38 -20
6 14 -29 31 -14 42 17 13 14 -13 28 -21 31 -17 4 4 -1 9 -10 13 -29 11 -17 26
17 19 l32 -6 -27 16 c-16 9 -28 20 -28 25 0 22 -29 8 -56 -27z m47 14 c-1 -12
-15 -9 -19 4 -3 6 1 10 8 8 6 -3 11 -8 11 -12z"/>
<path d="M2344 2843 c-15 -21 -24 -35 -19 -30 5 4 21 -5 37 -20 33 -31 38 -20
6 14 -28 30 -15 43 15 15 13 -12 27 -22 33 -22 5 0 1 5 -9 11 -25 15 -11 30
21 23 23 -4 25 -4 9 6 -10 7 -29 9 -43 6 -18 -5 -24 -2 -24 9 0 12 6 15 21 10
15 -5 19 -4 15 4 -13 20 -33 11 -62 -26z"/>
<path d="M3024 2843 c-15 -21 -24 -35 -19 -30 5 4 21 -5 37 -20 33 -31 38 -20
6 14 -29 31 -14 42 17 13 14 -13 28 -21 31 -17 4 4 -1 9 -10 13 -29 11 -17 26
17 19 l32 -6 -27 16 c-16 9 -28 20 -28 25 0 22 -29 8 -56 -27z m47 14 c-1 -12
-15 -9 -19 4 -3 6 1 10 8 8 6 -3 11 -8 11 -12z"/>
<path d="M3704 2843 c-15 -21 -24 -35 -19 -30 5 4 21 -5 37 -20 33 -31 38 -20
6 14 -12 13 -18 26 -15 30 4 3 17 -3 30 -15 13 -12 27 -22 33 -22 5 0 1 5 -8
11 -30 17 -21 31 15 24 26 -5 29 -4 14 5 -10 7 -29 9 -43 6 -18 -5 -24 -2 -24
9 0 12 6 15 21 10 15 -5 19 -4 15 4 -13 20 -33 11 -62 -26z"/>
<path d="M4384 2843 c-15 -21 -24 -35 -19 -30 5 4 21 -5 37 -20 33 -31 38 -20
6 14 -29 31 -14 42 17 13 14 -13 28 -21 31 -17 4 4 -1 9 -10 13 -29 11 -17 26
17 19 l32 -6 -27 16 c-16 9 -28 20 -28 25 0 22 -29 8 -56 -27z m47 14 c-1 -12
-15 -9 -19 4 -3 6 1 10 8 8 6 -3 11 -8 11 -12z"/>
<path d="M5064 2843 c-15 -21 -24 -35 -19 -30 5 4 21 -5 37 -20 33 -31 38 -20
6 14 -12 13 -18 26 -15 30 4 3 17 -3 30 -15 13 -12 27 -22 33 -22 5 0 1 5 -9
11 -25 15 -11 30 21 23 23 -4 25 -4 9 6 -10 7 -29 9 -43 6 -18 -5 -24 -2 -24
9 0 12 6 15 21 10 15 -5 19 -4 15 4 -13 20 -33 11 -62 -26z"/>
<path d="M5744 2843 c-15 -21 -24 -35 -19 -30 5 4 21 -5 37 -20 33 -31 38 -20
6 14 -29 31 -14 42 17 13 14 -13 28 -21 31 -17 4 4 -1 9 -10 13 -29 11 -17 26
17 19 l32 -6 -27 16 c-16 9 -28 20 -28 25 0 22 -29 8 -56 -27z m47 14 c-1 -12
-15 -9 -19 4 -3 6 1 10 8 8 6 -3 11 -8 11 -12z"/>
<path d="M254 2785 c-9 -23 5 -36 32 -29 28 7 33 -10 7 -26 -16 -10 -16 -10 2
-8 12 2 20 11 20 23 0 16 -6 20 -27 18 -29 -2 -40 21 -15 30 9 4 9 6 -1 6 -7
1 -15 -6 -18 -14z"/>
<path d="M934 2785 c-9 -23 5 -36 32 -29 28 7 33 -10 7 -26 -16 -10 -16 -10 2
-8 12 2 20 11 20 23 0 16 -6 20 -29 18 -23 -2 -27 1 -23 17 6 23 -1 27 -9 5z"/>
<path d="M1614 2785 c-9 -23 5 -36 32 -29 28 7 33 -10 7 -26 -16 -10 -16 -10
2 -8 12 2 20 11 20 23 0 16 -6 20 -27 18 -29 -2 -40 21 -15 30 9 4 9 6 -1 6
-7 1 -15 -6 -18 -14z"/>
<path d="M2294 2785 c-9 -23 5 -36 32 -29 28 7 33 -10 7 -26 -16 -10 -16 -10
2 -8 12 2 20 11 20 23 0 16 -6 20 -29 18 -23 -2 -27 1 -23 17 6 23 -1 27 -9 5z"/>
<path d="M2974 2785 c-9 -23 5 -36 32 -29 28 7 33 -10 7 -26 -16 -10 -16 -10
2 -8 12 2 20 11 20 23 0 16 -6 20 -27 18 -29 -2 -40 21 -15 30 9 4 9 6 -1 6
-7 1 -15 -6 -18 -14z"/>
<path d="M3654 2785 c-9 -23 5 -36 32 -29 28 7 33 -10 7 -26 -16 -10 -16 -10
2 -8 12 2 20 11 20 23 0 16 -6 20 -29 18 -23 -2 -27 1 -23 17 6 23 -1 27 -9 5z"/>
<path d="M4334 2785 c-9 -23 5 -36 32 -29 28 7 33 -10 7 -26 -16 -10 -16 -10
2 -8 12 2 20 11 20 23 0 16 -6 20 -27 18 -29 -2 -40 21 -15 30 9 4 9 6 -1 6
-7 1 -15 -6 -18 -14z"/>
<path d="M5014 2785 c-9 -23 5 -36 32 -29 28 7 33 -10 7 -26 -16 -10 -16 -10
2 -8 12 2 20 11 20 23 0 16 -6 20 -29 18 -23 -2 -27 1 -23 17 6 23 -1 27 -9 5z"/>
<path d="M5694 2785 c-9 -23 5 -36 32 -29 28 7 33 -10 7 -26 -16 -10 -16 -10
2 -8 12 2 20 11 20 23 0 16 -6 20 -27 18 -29 -2 -40 21 -15 30 9 4 9 6 -1 6
-7 1 -15 -6 -18 -14z"/>
<path d="M201 2737 c-8 -10 -4 -20 17 -40 26 -25 30 -26 48 -11 17 14 18 15 1
10 -27 -9 -40 3 -25 22 10 14 10 15 -2 5 -21 -19 -33 -16 -27 7 6 23 4 25 -12
7z"/>
<path d="M881 2737 c-8 -10 -4 -20 19 -42 27 -26 30 -27 46 -11 15 16 15 17
-10 10 -28 -7 -34 4 -13 26 10 12 9 12 -5 1 -9 -7 -23 -9 -29 -5 -9 5 -7 11 6
21 11 7 14 13 8 13 -6 0 -16 -6 -22 -13z"/>
<path d="M1561 2737 c-8 -10 -4 -20 17 -40 26 -25 30 -26 48 -11 17 14 18 15
1 10 -27 -9 -40 3 -25 22 10 14 10 15 -2 5 -21 -19 -33 -16 -27 7 6 23 4 25
-12 7z"/>
<path d="M2241 2737 c-8 -10 -4 -20 19 -42 27 -26 30 -27 46 -11 15 16 15 17
-10 10 -28 -7 -34 4 -13 26 10 12 9 12 -5 1 -9 -7 -23 -9 -29 -5 -9 5 -7 11 6
21 11 7 14 13 8 13 -6 0 -16 -6 -22 -13z"/>
<path d="M2921 2737 c-8 -10 -4 -20 17 -40 26 -25 30 -26 48 -11 17 14 18 15
1 10 -27 -9 -40 3 -25 22 10 14 10 15 -2 5 -21 -19 -33 -16 -27 7 6 23 4 25
-12 7z"/>
<path d="M3601 2737 c-8 -10 -4 -20 19 -42 27 -26 30 -27 46 -11 15 16 15 17
-10 10 -28 -7 -34 4 -13 26 10 12 9 12 -5 1 -9 -7 -23 -9 -29 -5 -9 5 -7 11 6
21 11 7 14 13 8 13 -6 0 -16 -6 -22 -13z"/>
<path d="M4281 2737 c-8 -10 -4 -20 17 -40 26 -25 30 -26 48 -11 17 14 18 15
1 10 -27 -9 -40 3 -25 22 10 14 10 15 -2 5 -21 -19 -33 -16 -27 7 6 23 4 25
-12 7z"/>
<path d="M4961 2737 c-8 -10 -4 -20 19 -42 27 -26 30 -27 46 -11 15 16 15 17
-10 10 -28 -7 -34 4 -13 26 10 12 9 12 -5 1 -9 -7 -23 -9 -29 -5 -9 5 -7 11 6
21 11 7 14 13 8 13 -6 0 -16 -6 -22 -13z"/>
<path d="M5641 2737 c-8 -10 -4 -20 17 -40 26 -25 30 -26 48 -11 17 14 18 15
1 10 -27 -9 -40 3 -25 22 10 14 10 15 -2 5 -21 -19 -33 -16 -27 7 6 23 4 25
-12 7z"/>
<path d="M190 2685 c18 -19 21 -28 12 -37 -9 -9 -16 -8 -29 4 -33 28 -48 31
-24 5 14 -15 32 -27 42 -27 36 0 30 60 -8 74 -13 5 -11 0 7 -19z"/>
<path d="M869 2686 c23 -24 21 -46 -2 -46 -7 0 -18 9 -25 20 -7 11 -17 20 -24
20 -6 0 -1 -11 12 -25 13 -14 31 -25 41 -25 28 0 33 36 10 59 -29 29 -39 26
-12 -3z"/>
<path d="M1550 2685 c18 -19 21 -28 12 -37 -9 -9 -16 -8 -29 4 -33 28 -48 31
-24 5 14 -15 32 -27 42 -27 36 0 30 60 -8 74 -13 5 -11 0 7 -19z"/>
<path d="M2229 2686 c23 -24 21 -46 -2 -46 -7 0 -18 9 -25 20 -7 11 -17 20
-24 20 -6 0 -1 -11 12 -25 27 -28 55 -33 64 -9 6 16 -22 63 -38 64 -5 0 1 -11
13 -24z"/>
<path d="M2910 2685 c18 -19 21 -28 12 -37 -9 -9 -16 -8 -29 4 -33 28 -48 31
-24 5 14 -15 32 -27 42 -27 36 0 30 60 -8 74 -13 5 -11 0 7 -19z"/>
<path d="M3589 2686 c23 -24 21 -46 -2 -46 -7 0 -18 9 -25 20 -7 11 -17 20
-24 20 -6 0 -1 -11 12 -25 13 -14 31 -25 41 -25 28 0 33 36 10 59 -29 29 -39
26 -12 -3z"/>
<path d="M4270 2685 c18 -19 21 -28 12 -37 -9 -9 -16 -8 -29 4 -33 28 -48 31
-24 5 14 -15 32 -27 42 -27 36 0 30 60 -8 74 -13 5 -11 0 7 -19z"/>
<path d="M4949 2686 c23 -24 21 -46 -2 -46 -7 0 -18 9 -25 20 -7 11 -17 20
-24 20 -6 0 -1 -11 12 -25 27 -28 55 -33 64 -9 6 16 -22 63 -38 64 -5 0 1 -11
13 -24z"/>
<path d="M5630 2685 c18 -19 21 -28 12 -37 -9 -9 -16 -8 -29 4 -33 28 -48 31
-24 5 14 -15 32 -27 42 -27 36 0 30 60 -8 74 -13 5 -11 0 7 -19z"/>
<path d="M125 2624 c14 -34 14 -36 -3 -29 -9 4 -28 10 -42 13 l-25 5 29 -32
c17 -17 34 -31 39 -31 6 0 -3 12 -19 26 -21 19 -24 24 -9 19 50 -18 59 -19 52
-2 -21 51 -21 52 9 27 l29 -25 -29 33 c-39 42 -50 41 -31 -4z"/>
<path d="M801 2630 c13 -35 24 -41 13 -7 -6 22 -6 22 22 -3 l29 -25 -29 33
c-37 40 -48 41 -35 2z"/>
<path d="M1485 2624 c14 -34 14 -36 -3 -29 -9 4 -28 10 -42 13 l-25 5 29 -32
c17 -17 34 -31 39 -31 6 0 -3 12 -19 26 -21 19 -24 24 -9 19 50 -18 59 -19 52
-2 -21 51 -21 52 9 27 l29 -25 -29 33 c-39 42 -50 41 -31 -4z"/>
<path d="M2161 2630 c13 -35 24 -41 13 -7 -6 22 -6 22 22 -3 l29 -25 -29 33
c-37 40 -48 41 -35 2z"/>
<path d="M2845 2624 c14 -34 14 -36 -3 -29 -9 4 -28 10 -42 13 l-25 5 29 -32
c17 -17 34 -31 39 -31 6 0 -3 12 -19 26 -21 19 -24 24 -9 19 50 -18 59 -19 52
-2 -21 51 -21 52 9 27 l29 -25 -29 33 c-39 42 -50 41 -31 -4z"/>
<path d="M3521 2630 c13 -35 24 -41 13 -7 -6 22 -6 22 22 -3 l29 -25 -29 33
c-37 40 -48 41 -35 2z"/>
<path d="M4205 2624 c14 -34 14 -36 -3 -29 -9 4 -28 10 -42 13 l-25 5 29 -32
c17 -17 34 -31 39 -31 6 0 -3 12 -19 26 -21 19 -24 24 -9 19 50 -18 59 -19 52
-2 -21 51 -21 52 9 27 l29 -25 -29 33 c-39 42 -50 41 -31 -4z"/>
<path d="M4881 2630 c13 -35 24 -41 13 -7 -6 22 -6 22 22 -3 l29 -25 -29 33
c-37 40 -48 41 -35 2z"/>
<path d="M5565 2624 c14 -34 14 -36 -3 -29 -9 4 -28 10 -42 13 l-25 5 29 -32
c17 -17 34 -31 39 -31 6 0 -3 12 -19 26 -21 19 -24 24 -9 19 50 -18 59 -19 52
-2 -21 51 -21 52 9 27 l29 -25 -29 33 c-39 42 -50 41 -31 -4z"/>
<path d="M740 2607 c0 -2 15 -16 33 -33 17 -16 26 -22 20 -14 -20 22 -15 31
15 25 24 -5 23 -4 -7 10 -30 14 -61 20 -61 12z"/>
<path d="M2100 2607 c0 -2 15 -16 33 -33 17 -16 26 -22 20 -14 -20 22 -15 31
15 25 24 -5 23 -4 -7 10 -30 14 -61 20 -61 12z"/>
<path d="M3460 2607 c0 -2 15 -16 33 -33 17 -16 26 -22 20 -14 -20 22 -15 31
15 25 24 -5 23 -4 -7 10 -30 14 -61 20 -61 12z"/>
<path d="M4820 2607 c0 -2 15 -16 33 -33 17 -16 26 -22 20 -14 -20 22 -15 31
15 25 24 -5 23 -4 -7 10 -30 14 -61 20 -61 12z"/>
<path d="M390 2408 c1 -7 10 -29 21 -48 11 -19 17 -25 14 -14 -6 22 17 40 36
28 5 -3 9 -3 9 0 0 3 -18 15 -40 26 -28 14 -40 17 -40 8z m35 -17 c3 -5 1 -12
-4 -15 -5 -3 -11 1 -15 9 -6 16 9 21 19 6z"/>
<path d="M1070 2411 c0 -6 5 -22 12 -36 10 -23 13 -24 29 -9 10 9 23 13 28 9
6 -3 11 -4 11 -1 0 3 -18 15 -40 26 -22 11 -40 16 -40 11z m35 -20 c3 -5 1
-12 -4 -15 -5 -3 -11 1 -15 9 -6 16 9 21 19 6z"/>
<path d="M1750 2408 c1 -7 10 -29 21 -48 11 -19 17 -25 14 -14 -6 22 17 40 36
28 5 -3 9 -3 9 0 0 3 -18 15 -40 26 -28 14 -40 17 -40 8z m35 -17 c3 -5 1 -12
-4 -15 -5 -3 -11 1 -15 9 -6 16 9 21 19 6z"/>
<path d="M2430 2411 c0 -6 5 -22 12 -36 10 -23 13 -24 29 -9 10 9 23 13 28 9
6 -3 11 -4 11 -1 0 3 -18 15 -40 26 -22 11 -40 16 -40 11z m35 -20 c3 -5 1
-12 -4 -15 -5 -3 -11 1 -15 9 -6 16 9 21 19 6z"/>
<path d="M3110 2408 c1 -7 10 -29 21 -48 11 -19 17 -25 14 -14 -6 22 17 40 36
28 5 -3 9 -3 9 0 0 3 -18 15 -40 26 -28 14 -40 17 -40 8z m35 -17 c3 -5 1 -12
-4 -15 -5 -3 -11 1 -15 9 -6 16 9 21 19 6z"/>
<path d="M3790 2411 c0 -6 5 -22 12 -36 10 -23 13 -24 29 -9 10 9 23 13 28 9
6 -3 11 -4 11 -1 0 3 -18 15 -40 26 -22 11 -40 16 -40 11z m35 -20 c3 -5 1
-12 -4 -15 -5 -3 -11 1 -15 9 -6 16 9 21 19 6z"/>
<path d="M4470 2408 c1 -7 10 -29 21 -48 11 -19 17 -25 14 -14 -6 22 17 40 36
28 5 -3 9 -3 9 0 0 3 -18 15 -40 26 -28 14 -40 17 -40 8z m35 -17 c3 -5 1 -12
-4 -15 -5 -3 -11 1 -15 9 -6 16 9 21 19 6z"/>
<path d="M5150 2411 c0 -6 5 -22 12 -36 10 -23 13 -24 29 -9 10 9 23 13 28 9
6 -3 11 -4 11 -1 0 3 -18 15 -40 26 -22 11 -40 16 -40 11z m35 -20 c3 -5 1
-12 -4 -15 -5 -3 -11 1 -15 9 -6 16 9 21 19 6z"/>
<path d="M5830 2408 c1 -7 10 -29 21 -48 11 -19 17 -25 14 -14 -6 22 17 40 36
28 5 -3 9 -3 9 0 0 3 -18 15 -40 26 -28 14 -40 17 -40 8z m35 -17 c3 -5 1 -12
-4 -15 -5 -3 -11 1 -15 9 -6 16 9 21 19 6z"/>
<path d="M304 2343 c-15 -20 -23 -34 -17 -30 5 4 21 -5 33 -18 13 -14 28 -25
34 -25 5 0 -3 13 -19 30 -34 36 -26 53 10 20 14 -13 28 -20 32 -17 3 4 2 7 -4
7 -6 0 -14 7 -17 16 -5 13 -1 15 21 9 l28 -7 -28 26 c-16 14 -32 26 -36 26 -5
0 -21 -17 -37 -37z m51 18 c7 -12 -12 -24 -25 -16 -11 7 -4 25 10 25 5 0 11
-4 15 -9z"/>
<path d="M984 2343 c-15 -20 -23 -34 -17 -30 5 4 21 -5 33 -18 13 -14 28 -25
34 -25 5 0 -3 13 -19 30 -34 35 -26 54 9 21 l25 -23 -6 22 c-5 19 -3 21 17 15
16 -5 20 -4 15 5 -4 6 -18 10 -33 8 -15 -2 -27 3 -30 11 -3 10 1 12 17 8 11
-3 19 -1 15 4 -11 18 -32 8 -60 -28z"/>
<path d="M1664 2343 c-15 -20 -23 -34 -17 -30 5 4 21 -5 33 -18 13 -14 28 -25
34 -25 5 0 -3 13 -19 30 -34 36 -26 53 10 20 14 -13 28 -20 32 -17 3 4 2 7 -4
7 -6 0 -14 7 -17 16 -5 13 -1 15 21 9 l28 -7 -28 26 c-16 14 -32 26 -36 26 -5
0 -21 -17 -37 -37z m51 18 c7 -12 -12 -24 -25 -16 -11 7 -4 25 10 25 5 0 11
-4 15 -9z"/>
<path d="M2344 2343 c-15 -20 -23 -34 -17 -30 5 4 21 -5 33 -18 13 -14 28 -25
34 -25 5 0 -3 13 -19 30 -34 35 -26 54 9 21 l25 -23 -6 22 c-5 19 -3 21 17 15
16 -5 20 -4 15 5 -4 6 -18 10 -33 8 -15 -2 -27 3 -30 11 -3 10 1 12 17 8 11
-3 19 -1 15 4 -11 18 -32 8 -60 -28z"/>
<path d="M3024 2343 c-15 -20 -23 -34 -17 -30 5 4 21 -5 33 -18 13 -14 28 -25
34 -25 5 0 -3 13 -19 30 -34 36 -26 53 10 20 14 -13 28 -20 32 -17 3 4 2 7 -4
7 -6 0 -14 7 -17 16 -5 13 -1 15 21 9 l28 -7 -28 26 c-16 14 -32 26 -36 26 -5
0 -21 -17 -37 -37z m51 18 c7 -12 -12 -24 -25 -16 -11 7 -4 25 10 25 5 0 11
-4 15 -9z"/>
<path d="M3704 2343 c-15 -20 -23 -34 -17 -30 5 4 21 -5 33 -18 13 -14 28 -25
34 -25 5 0 -3 13 -19 30 -34 35 -26 54 9 21 l25 -23 -6 22 c-5 19 -3 21 17 15
16 -5 20 -4 15 5 -4 6 -18 10 -33 8 -15 -2 -27 3 -30 11 -3 10 1 12 17 8 11
-3 19 -1 15 4 -11 18 -32 8 -60 -28z"/>
<path d="M4384 2343 c-15 -20 -23 -34 -17 -30 5 4 21 -5 33 -18 13 -14 28 -25
34 -25 5 0 -3 13 -19 30 -34 36 -26 53 10 20 14 -13 28 -20 32 -17 3 4 2 7 -4
7 -6 0 -14 7 -17 16 -5 13 -1 15 21 9 l28 -7 -28 26 c-16 14 -32 26 -36 26 -5
0 -21 -17 -37 -37z m51 18 c7 -12 -12 -24 -25 -16 -11 7 -4 25 10 25 5 0 11
-4 15 -9z"/>
<path d="M5064 2343 c-15 -20 -23 -34 -17 -30 5 4 21 -5 33 -18 13 -14 28 -25
34 -25 5 0 -3 13 -19 30 -34 35 -26 54 9 21 l25 -23 -6 22 c-5 19 -3 21 17 15
16 -5 20 -4 15 5 -4 6 -18 10 -33 8 -15 -2 -27 3 -30 11 -3 10 1 12 17 8 11
-3 19 -1 15 4 -11 18 -32 8 -60 -28z"/>
<path d="M5744 2343 c-15 -20 -23 -34 -17 -30 5 4 21 -5 33 -18 13 -14 28 -25
34 -25 5 0 -3 13 -19 30 -34 36 -26 53 10 20 14 -13 28 -20 32 -17 3 4 2 7 -4
7 -6 0 -14 7 -17 16 -5 13 -1 15 21 9 l28 -7 -28 26 c-16 14 -32 26 -36 26 -5
0 -21 -17 -37 -37z m51 18 c7 -12 -12 -24 -25 -16 -11 7 -4 25 10 25 5 0 11
-4 15 -9z"/>
<path d="M254 2285 c-9 -23 5 -36 32 -29 28 7 33 -10 7 -25 -16 -9 -16 -10 -2
-11 18 0 33 26 23 42 -3 5 -18 7 -31 3 -22 -5 -25 -3 -20 14 6 24 -1 28 -9 6z"/>
<path d="M1614 2285 c-9 -23 5 -36 32 -29 28 7 33 -10 7 -25 -16 -9 -16 -10
-2 -11 18 0 33 26 23 42 -3 5 -18 7 -31 3 -22 -5 -25 -3 -20 14 6 24 -1 28 -9
6z"/>
<path d="M2974 2285 c-9 -23 5 -36 32 -29 28 7 33 -10 7 -25 -16 -9 -16 -10
-2 -11 18 0 33 26 23 42 -3 5 -18 7 -31 3 -22 -5 -25 -3 -20 14 6 24 -1 28 -9
6z"/>
<path d="M4334 2285 c-9 -23 5 -36 32 -29 28 7 33 -10 7 -25 -16 -9 -16 -10
-2 -11 18 0 33 26 23 42 -3 5 -18 7 -31 3 -22 -5 -25 -3 -20 14 6 24 -1 28 -9
6z"/>
<path d="M5694 2285 c-9 -23 5 -36 32 -29 28 7 33 -10 7 -25 -16 -9 -16 -10
-2 -11 18 0 33 26 23 42 -3 5 -18 7 -31 3 -22 -5 -25 -3 -20 14 6 24 -1 28 -9
6z"/>
<path d="M936 2258 c3 -5 16 -5 30 -2 28 7 33 -10 7 -26 -16 -10 -16 -10 2 -8
12 2 20 11 20 23 0 16 -7 20 -32 20 -17 1 -29 -3 -27 -7z"/>
<path d="M2296 2258 c3 -5 16 -5 30 -2 28 7 33 -10 7 -26 -16 -10 -16 -10 2
-8 12 2 20 11 20 23 0 16 -7 20 -32 20 -17 1 -29 -3 -27 -7z"/>
<path d="M3656 2258 c3 -5 16 -5 30 -2 28 7 33 -10 7 -26 -16 -10 -16 -10 2
-8 12 2 20 11 20 23 0 16 -7 20 -32 20 -17 1 -29 -3 -27 -7z"/>
<path d="M5016 2258 c3 -5 16 -5 30 -2 28 7 33 -10 7 -26 -16 -10 -16 -10 2
-8 12 2 20 11 20 23 0 16 -7 20 -32 20 -17 1 -29 -3 -27 -7z"/>
<path d="M201 2237 c-8 -10 -4 -20 17 -40 25 -23 29 -24 47 -11 19 15 19 15
-7 9 -30 -8 -36 2 -15 25 10 12 9 12 -5 2 -12 -10 -18 -10 -23 -1 -4 6 -1 15
6 20 8 5 9 9 3 9 -6 0 -17 -6 -23 -13z"/>
<path d="M881 2237 c-8 -10 -4 -20 19 -42 27 -25 30 -26 45 -11 9 9 12 16 6
16 -5 0 -13 -5 -17 -11 -4 -8 -9 -7 -15 2 -4 8 -3 20 4 29 10 13 10 13 -5 2
-9 -8 -23 -10 -29 -6 -9 5 -7 11 6 21 11 7 14 13 8 13 -6 0 -16 -6 -22 -13z"/>
<path d="M1561 2237 c-8 -10 -4 -20 17 -40 25 -23 29 -24 47 -11 19 15 19 15
-7 9 -30 -8 -36 2 -15 25 10 12 9 12 -5 2 -12 -10 -18 -10 -23 -1 -4 6 -1 15
6 20 8 5 9 9 3 9 -6 0 -17 -6 -23 -13z"/>
<path d="M2241 2237 c-8 -10 -4 -20 19 -42 27 -25 30 -26 45 -11 9 9 12 16 6
16 -5 0 -13 -5 -17 -11 -4 -8 -9 -7 -15 2 -4 8 -3 20 4 29 10 13 10 13 -5 2
-9 -8 -23 -10 -29 -6 -9 5 -7 11 6 21 11 7 14 13 8 13 -6 0 -16 -6 -22 -13z"/>
<path d="M2921 2237 c-8 -10 -4 -20 17 -40 25 -23 29 -24 47 -11 19 15 19 15
-7 9 -30 -8 -36 2 -15 25 10 12 9 12 -5 2 -12 -10 -18 -10 -23 -1 -4 6 -1 15
6 20 8 5 9 9 3 9 -6 0 -17 -6 -23 -13z"/>
<path d="M3601 2237 c-8 -10 -4 -20 19 -42 27 -25 30 -26 45 -11 9 9 12 16 6
16 -5 0 -13 -5 -17 -11 -4 -8 -9 -7 -15 2 -4 8 -3 20 4 29 10 13 10 13 -5 2
-9 -8 -23 -10 -29 -6 -9 5 -7 11 6 21 11 7 14 13 8 13 -6 0 -16 -6 -22 -13z"/>
<path d="M4281 2237 c-8 -10 -4 -20 17 -40 25 -23 29 -24 47 -11 19 15 19 15
-7 9 -30 -8 -36 2 -15 25 10 12 9 12 -5 2 -12 -10 -18 -10 -23 -1 -4 6 -1 15
6 20 8 5 9 9 3 9 -6 0 -17 -6 -23 -13z"/>
<path d="M4961 2237 c-8 -10 -4 -20 19 -42 27 -25 30 -26 45 -11 9 9 12 16 6
16 -5 0 -13 -5 -17 -11 -4 -8 -9 -7 -15 2 -4 8 -3 20 4 29 10 13 10 13 -5 2
-9 -8 -23 -10 -29 -6 -9 5 -7 11 6 21 11 7 14 13 8 13 -6 0 -16 -6 -22 -13z"/>
<path d="M5641 2237 c-8 -10 -4 -20 17 -40 25 -23 29 -24 47 -11 19 15 19 15
-7 9 -30 -8 -36 2 -15 25 10 12 9 12 -5 2 -12 -10 -18 -10 -23 -1 -4 6 -1 15
6 20 8 5 9 9 3 9 -6 0 -17 -6 -23 -13z"/>
<path d="M189 2188 c12 -15 20 -31 16 -37 -9 -16 -19 -14 -45 9 -32 28 -38 25
-10 -5 30 -32 65 -30 65 4 0 14 -10 30 -25 39 l-25 16 24 -26z"/>
<path d="M869 2186 c23 -24 21 -46 -2 -46 -7 0 -18 9 -25 20 -7 11 -17 20 -24
20 -6 0 -1 -11 12 -25 27 -29 63 -30 68 -2 4 19 -24 57 -41 57 -6 0 0 -11 12
-24z"/>
<path d="M1549 2188 c12 -15 20 -31 16 -37 -9 -16 -19 -14 -45 9 -32 28 -38
25 -10 -5 30 -32 65 -30 65 4 0 14 -10 30 -25 39 l-25 16 24 -26z"/>
<path d="M2229 2186 c23 -24 21 -46 -2 -46 -7 0 -18 9 -25 20 -7 11 -17 20
-24 20 -6 0 -1 -11 12 -25 27 -29 63 -30 68 -2 2 11 -5 27 -17 38 -29 27 -39
23 -12 -5z"/>
<path d="M2909 2188 c12 -15 20 -31 16 -37 -9 -16 -19 -14 -45 9 -32 28 -38
25 -10 -5 30 -32 65 -30 65 4 0 14 -10 30 -25 39 l-25 16 24 -26z"/>
<path d="M3589 2186 c23 -24 21 -46 -2 -46 -7 0 -18 9 -25 20 -7 11 -17 20
-24 20 -6 0 -1 -11 12 -25 27 -29 63 -30 68 -2 4 19 -24 57 -41 57 -6 0 0 -11
12 -24z"/>
<path d="M4269 2188 c12 -15 20 -31 16 -37 -9 -16 -19 -14 -45 9 -32 28 -38
25 -10 -5 30 -32 65 -30 65 4 0 14 -10 30 -25 39 l-25 16 24 -26z"/>
<path d="M4949 2186 c23 -24 21 -46 -2 -46 -7 0 -18 9 -25 20 -7 11 -17 20
-24 20 -6 0 -1 -11 12 -25 27 -29 63 -30 68 -2 2 11 -5 27 -17 38 -29 27 -39
23 -12 -5z"/>
<path d="M5629 2188 c12 -15 20 -31 16 -37 -9 -16 -19 -14 -45 9 -32 28 -38
25 -10 -5 30 -32 65 -30 65 4 0 14 -10 30 -25 39 l-25 16 24 -26z"/>
<path d="M117 2145 c3 -9 8 -13 11 -10 3 3 17 -5 31 -17 21 -19 20 -17 -3 10
-32 34 -49 42 -39 17z"/>
<path d="M801 2130 c13 -35 24 -41 13 -7 -6 22 -6 22 22 -3 l29 -25 -29 33
c-37 40 -48 41 -35 2z"/>
<path d="M1477 2145 c3 -9 8 -13 11 -10 3 3 17 -5 31 -17 21 -19 20 -17 -3 10
-32 34 -49 42 -39 17z"/>
<path d="M2161 2130 c13 -35 24 -41 13 -7 -6 22 -6 22 22 -3 l29 -25 -29 33
c-37 40 -48 41 -35 2z"/>
<path d="M2837 2145 c3 -9 8 -13 11 -10 3 3 17 -5 31 -17 21 -19 20 -17 -3 10
-32 34 -49 42 -39 17z"/>
<path d="M3521 2130 c13 -35 24 -41 13 -7 -6 22 -6 22 22 -3 l29 -25 -29 33
c-37 40 -48 41 -35 2z"/>
<path d="M4197 2145 c3 -9 8 -13 11 -10 3 3 17 -5 31 -17 21 -19 20 -17 -3 10
-32 34 -49 42 -39 17z"/>
<path d="M4881 2130 c13 -35 24 -41 13 -7 -6 22 -6 22 22 -3 l29 -25 -29 33
c-37 40 -48 41 -35 2z"/>
<path d="M5557 2145 c3 -9 8 -13 11 -10 3 3 17 -5 31 -17 21 -19 20 -17 -3 10
-32 34 -49 42 -39 17z"/>
<path d="M134 2108 c6 -21 2 -22 -25 -7 -11 5 -27 9 -35 7 -12 -2 -8 -11 15
-32 17 -17 31 -27 31 -23 0 3 -10 16 -22 28 -21 20 -21 21 -3 14 56 -21 67
-17 44 15 -9 13 -10 12 -5 -2z"/>
<path d="M1494 2108 c6 -21 2 -22 -25 -7 -11 5 -27 9 -35 7 -12 -2 -8 -11 15
-32 17 -17 31 -27 31 -23 0 3 -10 16 -22 28 -21 20 -21 21 -3 14 56 -21 67
-17 44 15 -9 13 -10 12 -5 -2z"/>
<path d="M2854 2108 c6 -21 2 -22 -25 -7 -11 5 -27 9 -35 7 -12 -2 -8 -11 15
-32 17 -17 31 -27 31 -23 0 3 -10 16 -22 28 -21 20 -21 21 -3 14 56 -21 67
-17 44 15 -9 13 -10 12 -5 -2z"/>
<path d="M4214 2108 c6 -21 2 -22 -25 -7 -11 5 -27 9 -35 7 -12 -2 -8 -11 15
-32 17 -17 31 -27 31 -23 0 3 -10 16 -22 28 -21 20 -21 21 -3 14 56 -21 67
-17 44 15 -9 13 -10 12 -5 -2z"/>
<path d="M5574 2108 c6 -21 2 -22 -25 -7 -11 5 -27 9 -35 7 -12 -2 -8 -11 15
-32 17 -17 31 -27 31 -23 0 3 -10 16 -22 28 -21 20 -21 21 -3 14 56 -21 67
-17 44 15 -9 13 -10 12 -5 -2z"/>
<path d="M740 2107 c0 -2 15 -16 32 -33 18 -16 25 -20 15 -8 -22 27 -22 37 2
24 11 -5 26 -10 33 -10 17 1 -50 30 -68 30 -8 0 -14 -1 -14 -3z"/>
<path d="M2100 2107 c0 -2 15 -16 32 -33 18 -16 25 -20 15 -8 -22 27 -22 37 2
24 11 -5 26 -10 33 -10 17 1 -50 30 -68 30 -8 0 -14 -1 -14 -3z"/>
<path d="M3460 2107 c0 -2 15 -16 32 -33 18 -16 25 -20 15 -8 -22 27 -22 37 2
24 11 -5 26 -10 33 -10 17 1 -50 30 -68 30 -8 0 -14 -1 -14 -3z"/>
<path d="M4820 2107 c0 -2 15 -16 32 -33 18 -16 25 -20 15 -8 -22 27 -22 37 2
24 11 -5 26 -10 33 -10 17 1 -50 30 -68 30 -8 0 -14 -1 -14 -3z"/>
<path d="M390 1908 c1 -7 10 -29 21 -48 11 -19 18 -27 15 -18 -6 19 18 43 34
33 5 -3 10 -4 10 -1 0 3 -18 15 -40 26 -28 14 -40 17 -40 8z m35 -17 c3 -5 1
-12 -4 -15 -5 -3 -11 1 -15 9 -6 16 9 21 19 6z"/>
<path d="M1070 1908 c1 -7 10 -29 21 -48 11 -19 18 -27 15 -18 -6 19 18 43 34
33 5 -3 10 -4 10 -1 0 3 -18 15 -40 26 -28 14 -40 17 -40 8z m35 -17 c3 -5 1
-12 -4 -15 -5 -3 -11 1 -15 9 -6 16 9 21 19 6z"/>
<path d="M1750 1908 c1 -7 10 -29 21 -48 11 -19 18 -27 15 -18 -6 19 18 43 34
33 5 -3 10 -4 10 -1 0 3 -18 15 -40 26 -28 14 -40 17 -40 8z m35 -17 c3 -5 1
-12 -4 -15 -5 -3 -11 1 -15 9 -6 16 9 21 19 6z"/>
<path d="M2430 1908 c1 -7 10 -29 21 -48 11 -19 18 -27 15 -18 -6 19 18 43 34
33 5 -3 10 -4 10 -1 0 3 -18 15 -40 26 -28 14 -40 17 -40 8z m35 -17 c3 -5 1
-12 -4 -15 -5 -3 -11 1 -15 9 -6 16 9 21 19 6z"/>
<path d="M3110 1908 c1 -7 10 -29 21 -48 11 -19 18 -27 15 -18 -6 19 18 43 34
33 5 -3 10 -4 10 -1 0 3 -18 15 -40 26 -28 14 -40 17 -40 8z m35 -17 c3 -5 1
-12 -4 -15 -5 -3 -11 1 -15 9 -6 16 9 21 19 6z"/>
<path d="M3790 1908 c1 -7 10 -29 21 -48 11 -19 18 -27 15 -18 -6 19 18 43 34
33 5 -3 10 -4 10 -1 0 3 -18 15 -40 26 -28 14 -40 17 -40 8z m35 -17 c3 -5 1
-12 -4 -15 -5 -3 -11 1 -15 9 -6 16 9 21 19 6z"/>
<path d="M4470 1908 c1 -7 10 -29 21 -48 11 -19 18 -27 15 -18 -6 19 18 43 34
33 5 -3 10 -4 10 -1 0 3 -18 15 -40 26 -28 14 -40 17 -40 8z m35 -17 c3 -5 1
-12 -4 -15 -5 -3 -11 1 -15 9 -6 16 9 21 19 6z"/>
<path d="M5150 1908 c1 -7 10 -29 21 -48 11 -19 18 -27 15 -18 -6 19 18 43 34
33 5 -3 10 -4 10 -1 0 3 -18 15 -40 26 -28 14 -40 17 -40 8z m35 -17 c3 -5 1
-12 -4 -15 -5 -3 -11 1 -15 9 -6 16 9 21 19 6z"/>
<path d="M5830 1908 c1 -7 10 -29 21 -48 11 -19 18 -27 15 -18 -6 19 18 43 34
33 5 -3 10 -4 10 -1 0 3 -18 15 -40 26 -28 14 -40 17 -40 8z m35 -17 c3 -5 1
-12 -4 -15 -5 -3 -11 1 -15 9 -6 16 9 21 19 6z"/>
<path d="M304 1843 c-15 -21 -24 -35 -19 -30 5 4 21 -5 37 -20 33 -31 38 -20
6 14 -30 32 -14 42 20 12 15 -13 21 -17 15 -9 -21 24 -15 32 20 25 25 -5 28
-4 15 5 -10 6 -28 10 -40 8 -13 -2 -24 2 -25 7 -1 6 6 10 17 9 10 0 17 3 14 8
-11 17 -33 7 -60 -29z"/>
<path d="M984 1843 c-15 -21 -24 -35 -19 -30 5 4 21 -5 37 -20 33 -31 38 -20
6 14 -29 31 -15 43 16 14 l25 -23 -6 21 c-5 20 -3 21 23 16 26 -5 27 -4 6 5
-12 5 -25 16 -28 25 -10 25 -30 17 -60 -22z m49 21 c11 -11 -3 -24 -18 -18 -8
4 -12 10 -9 15 6 11 18 12 27 3z"/>
<path d="M1664 1843 c-15 -21 -24 -35 -19 -30 5 4 21 -5 37 -20 33 -31 38 -20
6 14 -30 32 -14 42 20 12 15 -13 21 -17 15 -9 -21 24 -15 32 20 25 25 -5 28
-4 15 5 -10 6 -28 10 -40 8 -13 -2 -24 2 -25 7 -1 6 6 10 17 9 10 0 17 3 14 8
-11 17 -33 7 -60 -29z"/>
<path d="M2344 1843 c-15 -21 -24 -35 -19 -30 5 4 21 -5 37 -20 33 -31 38 -20
6 14 -29 31 -15 43 16 14 l25 -23 -6 21 c-5 20 -3 21 23 16 26 -5 27 -4 6 5
-12 5 -25 16 -28 25 -10 25 -30 17 -60 -22z m49 21 c11 -11 -3 -24 -18 -18 -8
4 -12 10 -9 15 6 11 18 12 27 3z"/>
<path d="M3024 1843 c-15 -21 -24 -35 -19 -30 5 4 21 -5 37 -20 33 -31 38 -20
6 14 -30 32 -14 42 20 12 15 -13 21 -17 15 -9 -21 24 -15 32 20 25 25 -5 28
-4 15 5 -10 6 -28 10 -40 8 -13 -2 -24 2 -25 7 -1 6 6 10 17 9 10 0 17 3 14 8
-11 17 -33 7 -60 -29z"/>
<path d="M3704 1843 c-15 -21 -24 -35 -19 -30 5 4 21 -5 37 -20 33 -31 38 -20
6 14 -29 31 -15 43 16 14 l25 -23 -6 21 c-5 20 -3 21 23 16 26 -5 27 -4 6 5
-12 5 -25 16 -28 25 -10 25 -30 17 -60 -22z m49 21 c11 -11 -3 -24 -18 -18 -8
4 -12 10 -9 15 6 11 18 12 27 3z"/>
<path d="M4384 1843 c-15 -21 -24 -35 -19 -30 5 4 21 -5 37 -20 33 -31 38 -20
6 14 -30 32 -14 42 20 12 15 -13 21 -17 15 -9 -21 24 -15 32 20 25 25 -5 28
-4 15 5 -10 6 -28 10 -40 8 -13 -2 -24 2 -25 7 -1 6 6 10 17 9 10 0 17 3 14 8
-11 17 -33 7 -60 -29z"/>
<path d="M5064 1843 c-15 -21 -24 -35 -19 -30 5 4 21 -5 37 -20 33 -31 38 -20
6 14 -29 31 -15 43 16 14 l25 -23 -6 21 c-5 20 -3 21 23 16 26 -5 27 -4 6 5
-12 5 -25 16 -28 25 -10 25 -30 17 -60 -22z m49 21 c11 -11 -3 -24 -18 -18 -8
4 -12 10 -9 15 6 11 18 12 27 3z"/>
<path d="M5744 1843 c-15 -21 -24 -35 -19 -30 5 4 21 -5 37 -20 33 -31 38 -20
6 14 -30 32 -14 42 20 12 15 -13 21 -17 15 -9 -21 24 -15 32 20 25 25 -5 28
-4 15 5 -10 6 -28 10 -40 8 -13 -2 -24 2 -25 7 -1 6 6 10 17 9 10 0 17 3 14 8
-11 17 -33 7 -60 -29z"/>
<path d="M254 1785 c-9 -23 5 -36 32 -29 28 7 33 -10 7 -26 -16 -10 -16 -10 2
-8 12 2 20 11 20 23 0 16 -6 20 -29 18 -23 -2 -27 1 -23 17 6 23 -1 27 -9 5z"/>
<path d="M935 1790 c-3 -6 1 -7 9 -4 18 7 21 14 7 14 -6 0 -13 -4 -16 -10z"/>
<path d="M1614 1785 c-9 -23 5 -36 32 -29 28 7 33 -10 7 -26 -16 -10 -16 -10
2 -8 12 2 20 11 20 23 0 16 -6 20 -29 18 -23 -2 -27 1 -23 17 6 23 -1 27 -9 5z"/>
<path d="M2295 1790 c-3 -6 1 -7 9 -4 18 7 21 14 7 14 -6 0 -13 -4 -16 -10z"/>
<path d="M2974 1785 c-9 -23 5 -36 32 -29 28 7 33 -10 7 -26 -16 -10 -16 -10
2 -8 12 2 20 11 20 23 0 16 -6 20 -29 18 -23 -2 -27 1 -23 17 6 23 -1 27 -9 5z"/>
<path d="M3655 1790 c-3 -6 1 -7 9 -4 18 7 21 14 7 14 -6 0 -13 -4 -16 -10z"/>
<path d="M4334 1785 c-9 -23 5 -36 32 -29 28 7 33 -10 7 -26 -16 -10 -16 -10
2 -8 12 2 20 11 20 23 0 16 -6 20 -29 18 -23 -2 -27 1 -23 17 6 23 -1 27 -9 5z"/>
<path d="M5015 1790 c-3 -6 1 -7 9 -4 18 7 21 14 7 14 -6 0 -13 -4 -16 -10z"/>
<path d="M5694 1785 c-9 -23 5 -36 32 -29 28 7 33 -10 7 -26 -16 -10 -16 -10
2 -8 12 2 20 11 20 23 0 16 -6 20 -29 18 -23 -2 -27 1 -23 17 6 23 -1 27 -9 5z"/>
<path d="M936 1758 c3 -5 16 -5 30 -2 26 7 31 -4 12 -25 -11 -11 -10 -13 2 -9
8 3 15 13 15 24 0 15 -7 19 -32 19 -17 1 -29 -3 -27 -7z"/>
<path d="M2296 1758 c3 -5 16 -5 30 -2 26 7 31 -4 12 -25 -11 -11 -10 -13 2
-9 8 3 15 13 15 24 0 15 -7 19 -32 19 -17 1 -29 -3 -27 -7z"/>
<path d="M3656 1758 c3 -5 16 -5 30 -2 26 7 31 -4 12 -25 -11 -11 -10 -13 2
-9 8 3 15 13 15 24 0 15 -7 19 -32 19 -17 1 -29 -3 -27 -7z"/>
<path d="M5016 1758 c3 -5 16 -5 30 -2 26 7 31 -4 12 -25 -11 -11 -10 -13 2
-9 8 3 15 13 15 24 0 15 -7 19 -32 19 -17 1 -29 -3 -27 -7z"/>
<path d="M201 1737 c-8 -10 -4 -20 17 -40 25 -23 29 -24 47 -11 19 15 18 15
-9 8 -25 -6 -28 -4 -23 9 3 9 3 16 -1 16 -4 -1 -14 -1 -22 0 -12 1 -11 5 4 16
11 8 15 15 9 15 -6 0 -16 -6 -22 -13z"/>
<path d="M881 1737 c-8 -10 -4 -20 17 -40 26 -25 30 -26 48 -12 10 8 14 15 8
15 -5 0 -15 -5 -21 -11 -17 -17 -27 9 -12 29 11 14 11 15 -1 5 -8 -7 -18 -13
-22 -13 -13 0 -9 28 5 33 7 4 8 6 1 6 -6 1 -17 -5 -23 -12z"/>
<path d="M1561 1737 c-8 -10 -4 -20 17 -40 25 -23 29 -24 47 -11 19 15 18 15
-9 8 -25 -6 -28 -4 -23 9 3 9 3 16 -1 16 -4 -1 -14 -1 -22 0 -12 1 -11 5 4 16
11 8 15 15 9 15 -6 0 -16 -6 -22 -13z"/>
<path d="M2241 1737 c-8 -10 -4 -20 17 -40 26 -25 30 -26 48 -12 10 8 14 15 9
15 -6 0 -16 -5 -22 -11 -17 -17 -27 9 -12 29 11 14 11 15 -1 5 -8 -7 -18 -13
-22 -13 -13 0 -9 28 5 33 7 4 8 6 1 6 -6 1 -17 -5 -23 -12z"/>
<path d="M2921 1737 c-8 -10 -4 -20 17 -40 25 -23 29 -24 47 -11 19 15 18 15
-9 8 -25 -6 -28 -4 -23 9 3 9 3 16 -1 16 -4 -1 -14 -1 -22 0 -12 1 -11 5 4 16
11 8 15 15 9 15 -6 0 -16 -6 -22 -13z"/>
<path d="M3601 1737 c-8 -10 -4 -20 17 -40 26 -25 30 -26 48 -12 10 8 14 15 9
15 -6 0 -16 -5 -22 -11 -17 -17 -27 9 -12 29 11 14 11 15 -1 5 -8 -7 -18 -13
-22 -13 -13 0 -9 28 5 33 7 4 8 6 1 6 -6 1 -17 -5 -23 -12z"/>
<path d="M4281 1737 c-8 -10 -4 -20 17 -40 25 -23 29 -24 47 -11 19 15 18 15
-9 8 -25 -6 -28 -4 -23 9 3 9 3 16 -1 16 -4 -1 -14 -1 -22 0 -12 1 -11 5 4 16
11 8 15 15 9 15 -6 0 -16 -6 -22 -13z"/>
<path d="M4961 1737 c-8 -10 -4 -20 17 -40 26 -25 30 -26 48 -12 10 8 14 15 9
15 -6 0 -16 -5 -22 -11 -17 -17 -27 9 -12 29 11 14 11 15 -1 5 -8 -7 -18 -13
-22 -13 -13 0 -9 28 5 33 7 4 8 6 1 6 -6 1 -17 -5 -23 -12z"/>
<path d="M5641 1737 c-8 -10 -4 -20 17 -40 25 -23 29 -24 47 -11 19 15 18 15
-9 8 -25 -6 -28 -4 -23 9 3 9 3 16 -1 16 -4 -1 -14 -1 -22 0 -12 1 -11 5 4 16
11 8 15 15 9 15 -6 0 -16 -6 -22 -13z"/>
<path d="M189 1686 c23 -24 21 -46 -2 -46 -7 0 -18 9 -25 20 -7 11 -17 20 -24
20 -6 0 -1 -11 12 -25 27 -28 63 -30 68 -3 2 9 -6 26 -17 37 -29 29 -39 26
-12 -3z"/>
<path d="M869 1687 c19 -21 22 -30 13 -39 -9 -9 -19 -6 -44 12 l-33 23 25 -27
c28 -31 64 -31 67 -1 2 12 -8 27 -25 39 l-27 19 24 -26z"/>
<path d="M1550 1685 c18 -19 21 -28 12 -37 -9 -9 -17 -7 -35 10 -32 31 -46 28
-17 -3 27 -28 63 -30 68 -3 2 9 -6 26 -17 37 -30 30 -39 26 -11 -4z"/>
<path d="M2229 1687 c18 -20 22 -30 14 -38 -8 -8 -20 -5 -45 12 l-33 23 25
-28 c28 -31 64 -32 67 -1 2 12 -8 27 -25 39 l-27 19 24 -26z"/>
<path d="M2909 1686 c23 -24 21 -46 -2 -46 -7 0 -18 9 -25 20 -7 11 -17 20
-24 20 -6 0 -1 -11 12 -25 27 -28 63 -30 68 -3 2 9 -6 26 -17 37 -29 29 -39
26 -12 -3z"/>
<path d="M3589 1687 c19 -21 22 -30 13 -39 -9 -9 -19 -6 -44 12 l-33 23 25
-27 c28 -31 64 -31 67 -1 2 12 -8 27 -25 39 l-27 19 24 -26z"/>
<path d="M4270 1685 c18 -19 21 -28 12 -37 -9 -9 -17 -7 -35 10 -32 31 -46 28
-17 -3 27 -28 63 -30 68 -3 2 9 -6 26 -17 37 -30 30 -39 26 -11 -4z"/>
<path d="M4949 1687 c18 -20 22 -30 14 -38 -8 -8 -20 -5 -45 12 l-33 23 25
-28 c28 -31 64 -32 67 -1 2 12 -8 27 -25 39 l-27 19 24 -26z"/>
<path d="M5629 1686 c23 -24 21 -46 -2 -46 -7 0 -18 9 -25 20 -7 11 -17 20
-24 20 -6 0 -1 -11 12 -25 27 -28 63 -30 68 -3 2 9 -6 26 -17 37 -29 29 -39
26 -12 -3z"/>
<path d="M125 1624 c14 -34 14 -36 -3 -29 -9 4 -28 10 -42 13 l-25 5 29 -32
c17 -17 34 -31 40 -31 6 0 0 7 -12 16 -28 19 -30 39 -3 24 28 -14 44 -12 37 5
-20 49 -19 50 10 25 l29 -25 -29 33 c-39 42 -50 41 -31 -4z"/>
<path d="M805 1624 c14 -34 14 -36 -3 -29 -9 4 -28 10 -42 13 l-25 5 29 -32
c17 -17 35 -31 40 -31 6 1 1 9 -11 19 -28 23 -30 35 -4 21 28 -14 44 -12 37 5
-20 49 -19 50 10 25 l29 -25 -29 33 c-39 42 -50 41 -31 -4z"/>
<path d="M1485 1624 c14 -34 14 -36 -3 -29 -9 4 -28 10 -42 13 l-25 5 29 -32
c17 -17 34 -31 40 -31 6 0 0 7 -12 16 -28 19 -30 39 -3 24 28 -14 44 -12 37 5
-20 49 -19 50 10 25 l29 -25 -29 33 c-39 42 -50 41 -31 -4z"/>
<path d="M2165 1624 c14 -34 14 -36 -3 -29 -9 4 -28 10 -42 13 l-25 5 29 -32
c17 -17 35 -31 40 -31 6 1 1 9 -11 19 -28 23 -30 35 -4 21 28 -14 44 -12 37 5
-20 49 -19 50 10 25 l29 -25 -29 33 c-39 42 -50 41 -31 -4z"/>
<path d="M2845 1624 c14 -34 14 -36 -3 -29 -9 4 -28 10 -42 13 l-25 5 29 -32
c17 -17 34 -31 40 -31 6 0 0 7 -12 16 -28 19 -30 39 -3 24 28 -14 44 -12 37 5
-20 49 -19 50 10 25 l29 -25 -29 33 c-39 42 -50 41 -31 -4z"/>
<path d="M3525 1624 c14 -34 14 -36 -3 -29 -9 4 -28 10 -42 13 l-25 5 29 -32
c17 -17 35 -31 40 -31 6 1 1 9 -11 19 -28 23 -30 35 -4 21 28 -14 44 -12 37 5
-20 49 -19 50 10 25 l29 -25 -29 33 c-39 42 -50 41 -31 -4z"/>
<path d="M4205 1624 c14 -34 14 -36 -3 -29 -9 4 -28 10 -42 13 l-25 5 29 -32
c17 -17 34 -31 40 -31 6 0 0 7 -12 16 -28 19 -30 39 -3 24 28 -14 44 -12 37 5
-20 49 -19 50 10 25 l29 -25 -29 33 c-39 42 -50 41 -31 -4z"/>
<path d="M4885 1624 c14 -34 14 -36 -3 -29 -9 4 -28 10 -42 13 l-25 5 29 -32
c17 -17 35 -31 40 -31 6 1 1 9 -11 19 -28 23 -30 35 -4 21 28 -14 44 -12 37 5
-20 49 -19 50 10 25 l29 -25 -29 33 c-39 42 -50 41 -31 -4z"/>
<path d="M5565 1624 c14 -34 14 -36 -3 -29 -9 4 -28 10 -42 13 l-25 5 29 -32
c17 -17 34 -31 40 -31 6 0 0 7 -12 16 -28 19 -30 39 -3 24 28 -14 44 -12 37 5
-20 49 -19 50 10 25 l29 -25 -29 33 c-39 42 -50 41 -31 -4z"/>
<path d="M390 1408 c1 -7 7 -24 14 -37 11 -21 14 -21 20 -6 4 11 13 15 26 12
31 -8 24 1 -20 23 -28 14 -40 17 -40 8z m35 -17 c3 -5 1 -12 -4 -15 -5 -3 -11
1 -15 9 -6 16 9 21 19 6z"/>
<path d="M1070 1408 c1 -7 10 -29 21 -48 11 -19 18 -27 15 -18 -6 19 18 43 34
33 5 -3 10 -4 10 -1 0 3 -18 15 -40 26 -28 14 -40 17 -40 8z m35 -17 c3 -5 1
-12 -4 -15 -5 -3 -11 1 -15 9 -6 16 9 21 19 6z"/>
<path d="M1750 1411 c0 -6 5 -21 11 -35 10 -22 13 -23 27 -10 8 8 21 13 28 10
29 -11 12 5 -26 24 -22 11 -40 16 -40 11z m35 -20 c3 -5 1 -12 -4 -15 -5 -3
-11 1 -15 9 -6 16 9 21 19 6z"/>
<path d="M2430 1408 c1 -7 10 -29 21 -48 11 -19 18 -27 15 -18 -6 19 18 43 34
33 5 -3 10 -4 10 -1 0 3 -18 15 -40 26 -28 14 -40 17 -40 8z m35 -17 c3 -5 1
-12 -4 -15 -5 -3 -11 1 -15 9 -6 16 9 21 19 6z"/>
<path d="M3110 1408 c1 -7 7 -24 14 -37 11 -21 14 -21 20 -6 4 11 13 15 26 12
31 -8 24 1 -20 23 -28 14 -40 17 -40 8z m35 -17 c3 -5 1 -12 -4 -15 -5 -3 -11
1 -15 9 -6 16 9 21 19 6z"/>
<path d="M3790 1408 c1 -7 10 -29 21 -48 11 -19 18 -27 15 -18 -6 19 18 43 34
33 5 -3 10 -4 10 -1 0 3 -18 15 -40 26 -28 14 -40 17 -40 8z m35 -17 c3 -5 1
-12 -4 -15 -5 -3 -11 1 -15 9 -6 16 9 21 19 6z"/>
<path d="M4470 1411 c0 -6 5 -21 11 -35 10 -22 13 -23 27 -10 8 8 21 13 28 10
29 -11 12 5 -26 24 -22 11 -40 16 -40 11z m35 -20 c3 -5 1 -12 -4 -15 -5 -3
-11 1 -15 9 -6 16 9 21 19 6z"/>
<path d="M5150 1408 c1 -7 10 -29 21 -48 11 -19 18 -27 15 -18 -6 19 18 43 34
33 5 -3 10 -4 10 -1 0 3 -18 15 -40 26 -28 14 -40 17 -40 8z m35 -17 c3 -5 1
-12 -4 -15 -5 -3 -11 1 -15 9 -6 16 9 21 19 6z"/>
<path d="M5830 1408 c1 -7 7 -24 14 -37 11 -21 14 -21 20 -6 4 11 13 15 26 12
31 -8 24 1 -20 23 -28 14 -40 17 -40 8z m35 -17 c3 -5 1 -12 -4 -15 -5 -3 -11
1 -15 9 -6 16 9 21 19 6z"/>
<path d="M304 1343 c-15 -20 -23 -34 -17 -30 5 4 21 -5 33 -18 13 -14 28 -25
34 -25 5 0 -3 13 -19 30 -34 36 -26 53 10 20 14 -13 28 -21 31 -17 4 4 -1 9
-10 13 -26 10 -8 25 22 18 15 -4 24 -3 20 1 -4 4 -22 8 -40 10 -17 1 -34 8
-36 15 -3 8 2 10 18 5 15 -5 20 -4 16 4 -13 20 -33 11 -62 -26z"/>
<path d="M984 1343 c-15 -20 -23 -34 -17 -30 5 4 21 -5 33 -18 13 -14 28 -25
34 -25 5 0 -3 13 -19 30 -33 35 -26 54 8 22 30 -28 46 -29 21 -1 l-19 22 28
-7 c20 -5 27 -3 22 4 -4 6 -18 10 -33 8 -15 -2 -27 3 -30 11 -3 10 2 11 18 6
15 -5 20 -4 16 4 -13 20 -33 11 -62 -26z"/>
<path d="M1664 1343 c-15 -20 -23 -34 -17 -30 5 4 21 -5 33 -18 13 -14 28 -25
34 -25 5 0 -3 13 -19 30 -34 36 -26 53 10 20 14 -13 28 -21 31 -17 4 4 -1 9
-10 13 -26 10 -8 25 22 18 15 -4 24 -3 20 1 -4 4 -22 8 -40 10 -17 1 -34 8
-36 15 -3 8 2 10 18 5 15 -5 20 -4 16 4 -13 20 -33 11 -62 -26z"/>
<path d="M2344 1343 c-15 -20 -23 -34 -17 -30 5 4 21 -5 33 -18 13 -14 28 -25
34 -25 5 0 -3 13 -19 30 -34 36 -26 53 10 20 14 -13 28 -21 31 -17 4 4 -1 9
-10 13 -26 10 -19 27 10 20 17 -5 23 -3 19 4 -4 6 -18 10 -33 8 -15 -2 -27 3
-30 11 -3 10 2 11 18 6 15 -5 20 -4 16 4 -13 20 -33 11 -62 -26z"/>
<path d="M3024 1343 c-15 -20 -23 -34 -17 -30 5 4 21 -5 33 -18 13 -14 28 -25
34 -25 5 0 -3 13 -19 30 -34 36 -26 53 10 20 14 -13 28 -21 31 -17 4 4 -1 9
-10 13 -26 10 -8 25 22 18 15 -4 24 -3 20 1 -4 4 -22 8 -40 10 -17 1 -34 8
-36 15 -3 8 2 10 18 5 15 -5 20 -4 16 4 -13 20 -33 11 -62 -26z"/>
<path d="M3704 1343 c-15 -20 -23 -34 -17 -30 5 4 21 -5 33 -18 13 -14 28 -25
34 -25 5 0 -3 13 -19 30 -33 35 -26 54 8 22 30 -28 46 -29 21 -1 l-19 22 28
-7 c20 -5 27 -3 22 4 -4 6 -18 10 -33 8 -15 -2 -27 3 -30 11 -3 10 2 11 18 6
15 -5 20 -4 16 4 -13 20 -33 11 -62 -26z"/>
<path d="M4384 1343 c-15 -20 -23 -34 -17 -30 5 4 21 -5 33 -18 13 -14 28 -25
34 -25 5 0 -3 13 -19 30 -34 36 -26 53 10 20 14 -13 28 -21 31 -17 4 4 -1 9
-10 13 -26 10 -8 25 22 18 15 -4 24 -3 20 1 -4 4 -22 8 -40 10 -17 1 -34 8
-36 15 -3 8 2 10 18 5 15 -5 20 -4 16 4 -13 20 -33 11 -62 -26z"/>
<path d="M5064 1343 c-15 -20 -23 -34 -17 -30 5 4 21 -5 33 -18 13 -14 28 -25
34 -25 5 0 -3 13 -19 30 -34 36 -26 53 10 20 14 -13 28 -21 31 -17 4 4 -1 9
-10 13 -26 10 -19 27 10 20 17 -5 23 -3 19 4 -4 6 -18 10 -33 8 -15 -2 -27 3
-30 11 -3 10 2 11 18 6 15 -5 20 -4 16 4 -13 20 -33 11 -62 -26z"/>
<path d="M5744 1343 c-15 -20 -23 -34 -17 -30 5 4 21 -5 33 -18 13 -14 28 -25
34 -25 5 0 -3 13 -19 30 -34 36 -26 53 10 20 14 -13 28 -21 31 -17 4 4 -1 9
-10 13 -26 10 -8 25 22 18 15 -4 24 -3 20 1 -4 4 -22 8 -40 10 -17 1 -34 8
-36 15 -3 8 2 10 18 5 15 -5 20 -4 16 4 -13 20 -33 11 -62 -26z"/>
<path d="M254 1285 c-9 -23 5 -36 32 -29 28 7 33 -10 7 -26 -16 -10 -16 -10 2
-8 12 2 20 11 20 23 0 16 -6 20 -29 18 -23 -2 -27 1 -23 17 6 23 -1 27 -9 5z"/>
<path d="M935 1290 c-3 -6 1 -7 9 -4 18 7 21 14 7 14 -6 0 -13 -4 -16 -10z"/>
<path d="M2295 1290 c-3 -6 1 -7 9 -4 18 7 21 14 7 14 -6 0 -13 -4 -16 -10z"/>
<path d="M2974 1285 c-9 -23 5 -36 32 -29 28 7 33 -10 7 -26 -16 -10 -16 -10
2 -8 12 2 20 11 20 23 0 16 -6 20 -29 18 -23 -2 -27 1 -23 17 6 23 -1 27 -9 5z"/>
<path d="M3655 1290 c-3 -6 1 -7 9 -4 18 7 21 14 7 14 -6 0 -13 -4 -16 -10z"/>
<path d="M5015 1290 c-3 -6 1 -7 9 -4 18 7 21 14 7 14 -6 0 -13 -4 -16 -10z"/>
<path d="M5694 1285 c-9 -23 5 -36 32 -29 28 7 33 -10 7 -26 -16 -10 -16 -10
2 -8 12 2 20 11 20 23 0 16 -6 20 -29 18 -23 -2 -27 1 -23 17 6 23 -1 27 -9 5z"/>
<path d="M936 1258 c3 -5 16 -5 30 -2 28 7 33 -10 7 -25 -17 -10 -17 -10 0
-11 9 0 18 5 19 10 4 31 1 35 -29 35 -17 1 -29 -3 -27 -7z"/>
<path d="M1616 1258 c3 -5 16 -5 30 -2 28 7 33 -10 7 -26 -16 -10 -16 -10 2
-8 12 2 20 11 20 23 0 16 -7 20 -32 20 -17 1 -29 -3 -27 -7z"/>
<path d="M2296 1258 c3 -5 16 -5 30 -2 28 7 33 -10 7 -25 -17 -10 -17 -10 0
-11 9 0 18 5 19 10 4 31 1 35 -29 35 -17 1 -29 -3 -27 -7z"/>
<path d="M3656 1258 c3 -5 16 -5 30 -2 28 7 33 -10 7 -25 -17 -10 -17 -10 0
-11 9 0 18 5 19 10 4 31 1 35 -29 35 -17 1 -29 -3 -27 -7z"/>
<path d="M4336 1258 c3 -5 16 -5 30 -2 28 7 33 -10 7 -26 -16 -10 -16 -10 2
-8 12 2 20 11 20 23 0 16 -7 20 -32 20 -17 1 -29 -3 -27 -7z"/>
<path d="M5016 1258 c3 -5 16 -5 30 -2 28 7 33 -10 7 -25 -17 -10 -17 -10 0
-11 9 0 18 5 19 10 4 31 1 35 -29 35 -17 1 -29 -3 -27 -7z"/>
<path d="M201 1237 c-8 -10 -4 -20 17 -40 24 -23 29 -24 46 -11 11 8 15 14 9
14 -7 0 -15 -5 -19 -11 -4 -8 -9 -7 -15 2 -4 8 -3 20 4 29 9 12 9 13 -2 3 -19
-16 -45 -5 -30 13 6 8 9 14 6 14 -2 0 -10 -6 -16 -13z"/>
<path d="M881 1237 c-8 -10 -4 -20 19 -42 27 -25 30 -26 45 -11 9 9 13 16 8
16 -5 0 -14 -5 -20 -11 -17 -17 -27 9 -11 29 11 15 11 15 -2 5 -9 -7 -21 -8
-29 -4 -11 7 -9 11 5 20 11 6 14 11 8 11 -6 0 -17 -6 -23 -13z"/>
<path d="M1561 1237 c-8 -10 -4 -20 17 -40 24 -23 29 -24 46 -11 11 8 15 14 9
14 -7 0 -15 -5 -19 -11 -4 -8 -9 -7 -15 2 -4 8 -3 20 4 29 9 12 9 13 -2 3 -19
-16 -45 -5 -30 13 6 8 9 14 6 14 -2 0 -10 -6 -16 -13z"/>
<path d="M2241 1237 c-8 -10 -4 -20 17 -40 24 -23 29 -24 46 -11 11 8 15 14
10 14 -6 0 -15 -5 -21 -11 -17 -17 -27 9 -11 29 11 15 11 15 -2 5 -9 -7 -21
-8 -29 -4 -11 7 -9 11 5 20 11 6 14 11 8 11 -6 0 -17 -6 -23 -13z"/>
<path d="M2921 1237 c-8 -10 -4 -20 17 -40 24 -23 29 -24 46 -11 11 8 15 14 9
14 -7 0 -15 -5 -19 -11 -4 -8 -9 -7 -15 2 -4 8 -3 20 4 29 9 12 9 13 -2 3 -19
-16 -45 -5 -30 13 6 8 9 14 6 14 -2 0 -10 -6 -16 -13z"/>
<path d="M3601 1237 c-8 -10 -4 -20 19 -42 27 -25 30 -26 45 -11 9 9 13 16 8
16 -5 0 -14 -5 -20 -11 -17 -17 -27 9 -11 29 11 15 11 15 -2 5 -9 -7 -21 -8
-29 -4 -11 7 -9 11 5 20 11 6 14 11 8 11 -6 0 -17 -6 -23 -13z"/>
<path d="M4281 1237 c-8 -10 -4 -20 17 -40 24 -23 29 -24 46 -11 11 8 15 14 9
14 -7 0 -15 -5 -19 -11 -4 -8 -9 -7 -15 2 -4 8 -3 20 4 29 9 12 9 13 -2 3 -19
-16 -45 -5 -30 13 6 8 9 14 6 14 -2 0 -10 -6 -16 -13z"/>
<path d="M4961 1237 c-8 -10 -4 -20 17 -40 24 -23 29 -24 46 -11 11 8 15 14
10 14 -6 0 -15 -5 -21 -11 -17 -17 -27 9 -11 29 11 15 11 15 -2 5 -9 -7 -21
-8 -29 -4 -11 7 -9 11 5 20 11 6 14 11 8 11 -6 0 -17 -6 -23 -13z"/>
<path d="M5641 1237 c-8 -10 -4 -20 17 -40 24 -23 29 -24 46 -11 11 8 15 14 9
14 -7 0 -15 -5 -19 -11 -4 -8 -9 -7 -15 2 -4 8 -3 20 4 29 9 12 9 13 -2 3 -19
-16 -45 -5 -30 13 6 8 9 14 6 14 -2 0 -10 -6 -16 -13z"/>
<path d="M189 1186 c24 -25 21 -46 -5 -46 -8 0 -17 6 -20 14 -3 8 -13 17 -22
21 -11 4 -8 -3 8 -20 27 -28 63 -30 68 -3 2 9 -6 26 -17 37 -29 29 -39 26 -12
-3z"/>
<path d="M869 1186 c24 -25 21 -46 -5 -46 -8 0 -17 6 -20 14 -3 8 -13 17 -22
21 -11 4 -9 -2 7 -19 30 -31 57 -33 66 -5 7 21 -18 59 -38 59 -6 0 0 -11 12
-24z"/>
<path d="M1549 1186 c24 -25 21 -46 -5 -46 -8 0 -17 6 -20 14 -3 8 -13 17 -22
21 -11 4 -8 -3 8 -20 27 -28 63 -30 68 -3 2 9 -6 26 -17 37 -29 29 -39 26 -12
-3z"/>
<path d="M2229 1186 c24 -25 21 -46 -5 -46 -8 0 -17 6 -20 14 -3 8 -13 17 -22
21 -11 4 -9 -2 7 -19 30 -31 57 -33 66 -5 5 14 0 27 -14 40 -29 27 -39 23 -12
-5z"/>
<path d="M2909 1186 c24 -25 21 -46 -5 -46 -8 0 -17 6 -20 14 -3 8 -13 17 -22
21 -11 4 -8 -3 8 -20 27 -28 63 -30 68 -3 2 9 -6 26 -17 37 -29 29 -39 26 -12
-3z"/>
<path d="M3589 1186 c24 -25 21 -46 -5 -46 -8 0 -17 6 -20 14 -3 8 -13 17 -22
21 -11 4 -9 -2 7 -19 30 -31 57 -33 66 -5 7 21 -18 59 -38 59 -6 0 0 -11 12
-24z"/>
<path d="M4269 1186 c24 -25 21 -46 -5 -46 -8 0 -17 6 -20 14 -3 8 -13 17 -22
21 -11 4 -8 -3 8 -20 27 -28 63 -30 68 -3 2 9 -6 26 -17 37 -29 29 -39 26 -12
-3z"/>
<path d="M4949 1186 c24 -25 21 -46 -5 -46 -8 0 -17 6 -20 14 -3 8 -13 17 -22
21 -11 4 -9 -2 7 -19 30 -31 57 -33 66 -5 5 14 0 27 -14 40 -29 27 -39 23 -12
-5z"/>
<path d="M5629 1186 c24 -25 21 -46 -5 -46 -8 0 -17 6 -20 14 -3 8 -13 17 -22
21 -11 4 -8 -3 8 -20 27 -28 63 -30 68 -3 2 9 -6 26 -17 37 -29 29 -39 26 -12
-3z"/>
<path d="M125 1124 c14 -34 14 -36 -3 -29 -9 4 -28 10 -42 13 l-25 5 29 -32
c17 -17 35 -31 40 -31 6 0 3 7 -6 14 -26 19 -22 27 9 20 22 -6 25 -4 20 10
-21 50 -21 51 9 26 l29 -25 -29 33 c-39 42 -50 41 -31 -4z"/>
<path d="M801 1130 c13 -35 24 -41 13 -7 -6 22 -6 22 22 -3 l29 -25 -29 33
c-37 40 -48 41 -35 2z"/>
<path d="M1485 1124 c14 -34 14 -36 -3 -29 -9 4 -28 10 -42 13 l-25 5 29 -32
c17 -17 35 -31 40 -31 6 0 3 7 -6 14 -26 19 -22 27 9 20 22 -6 25 -4 20 10
-21 50 -21 51 9 26 l29 -25 -29 33 c-39 42 -50 41 -31 -4z"/>
<path d="M2161 1130 c13 -35 24 -41 13 -7 -6 22 -6 22 22 -3 l29 -25 -29 33
c-37 40 -48 41 -35 2z"/>
<path d="M2845 1124 c14 -34 14 -36 -3 -29 -9 4 -28 10 -42 13 l-25 5 29 -32
c17 -17 35 -31 40 -31 6 0 3 7 -6 14 -26 19 -22 27 9 20 22 -6 25 -4 20 10
-21 50 -21 51 9 26 l29 -25 -29 33 c-39 42 -50 41 -31 -4z"/>
<path d="M3521 1130 c13 -35 24 -41 13 -7 -6 22 -6 22 22 -3 l29 -25 -29 33
c-37 40 -48 41 -35 2z"/>
<path d="M4205 1124 c14 -34 14 -36 -3 -29 -9 4 -28 10 -42 13 l-25 5 29 -32
c17 -17 35 -31 40 -31 6 0 3 7 -6 14 -26 19 -22 27 9 20 22 -6 25 -4 20 10
-21 50 -21 51 9 26 l29 -25 -29 33 c-39 42 -50 41 -31 -4z"/>
<path d="M4881 1130 c13 -35 24 -41 13 -7 -6 22 -6 22 22 -3 l29 -25 -29 33
c-37 40 -48 41 -35 2z"/>
<path d="M5565 1124 c14 -34 14 -36 -3 -29 -9 4 -28 10 -42 13 l-25 5 29 -32
c17 -17 35 -31 40 -31 6 0 3 7 -6 14 -26 19 -22 27 9 20 22 -6 25 -4 20 10
-21 50 -21 51 9 26 l29 -25 -29 33 c-39 42 -50 41 -31 -4z"/>
<path d="M740 1107 c0 -2 14 -16 31 -33 19 -18 28 -22 24 -11 -4 9 -11 17 -16
17 -5 0 -9 5 -9 10 0 7 6 7 19 0 11 -5 26 -10 33 -10 17 1 -50 30 -68 30 -8 0
-14 -1 -14 -3z"/>
<path d="M2100 1107 c0 -2 14 -16 31 -33 19 -18 28 -22 24 -11 -4 9 -11 17
-16 17 -5 0 -9 5 -9 10 0 7 6 7 19 0 11 -5 26 -10 33 -10 17 1 -50 30 -68 30
-8 0 -14 -1 -14 -3z"/>
<path d="M3460 1107 c0 -2 14 -16 31 -33 19 -18 28 -22 24 -11 -4 9 -11 17
-16 17 -5 0 -9 5 -9 10 0 7 6 7 19 0 11 -5 26 -10 33 -10 17 1 -50 30 -68 30
-8 0 -14 -1 -14 -3z"/>
<path d="M4820 1107 c0 -2 14 -16 31 -33 19 -18 28 -22 24 -11 -4 9 -11 17
-16 17 -5 0 -9 5 -9 10 0 7 6 7 19 0 11 -5 26 -10 33 -10 17 1 -50 30 -68 30
-8 0 -14 -1 -14 -3z"/>
<path d="M390 911 c0 -6 5 -21 11 -35 10 -22 13 -23 27 -10 8 8 21 13 28 10
29 -11 12 5 -26 24 -22 11 -40 16 -40 11z m38 -20 c11 -7 11 -9 -1 -14 -9 -3
-18 1 -21 9 -6 16 2 18 22 5z"/>
<path d="M1070 908 c1 -7 7 -24 15 -38 12 -23 14 -23 21 -7 4 12 13 17 25 14
30 -8 22 1 -21 23 -28 14 -40 17 -40 8z m35 -17 c3 -5 1 -12 -4 -15 -5 -3 -11
1 -15 9 -6 16 9 21 19 6z"/>
<path d="M1750 911 c0 -6 5 -21 11 -35 10 -22 13 -23 27 -10 8 8 21 13 28 10
29 -11 12 5 -26 24 -22 11 -40 16 -40 11z m38 -20 c11 -7 11 -9 -1 -14 -9 -3
-18 1 -21 9 -6 16 2 18 22 5z"/>
<path d="M2430 908 c1 -7 7 -24 15 -38 12 -23 14 -23 21 -7 4 12 13 17 25 14
30 -8 22 1 -21 23 -28 14 -40 17 -40 8z m35 -17 c3 -5 1 -12 -4 -15 -5 -3 -11
1 -15 9 -6 16 9 21 19 6z"/>
<path d="M3110 911 c0 -6 5 -21 11 -35 10 -22 13 -23 27 -10 8 8 21 13 28 10
29 -11 12 5 -26 24 -22 11 -40 16 -40 11z m38 -20 c11 -7 11 -9 -1 -14 -9 -3
-18 1 -21 9 -6 16 2 18 22 5z"/>
<path d="M3790 908 c1 -7 7 -24 15 -38 12 -23 14 -23 21 -7 4 12 13 17 25 14
30 -8 22 1 -21 23 -28 14 -40 17 -40 8z m35 -17 c3 -5 1 -12 -4 -15 -5 -3 -11
1 -15 9 -6 16 9 21 19 6z"/>
<path d="M4470 911 c0 -6 5 -21 11 -35 10 -22 13 -23 27 -10 8 8 21 13 28 10
29 -11 12 5 -26 24 -22 11 -40 16 -40 11z m38 -20 c11 -7 11 -9 -1 -14 -9 -3
-18 1 -21 9 -6 16 2 18 22 5z"/>
<path d="M5150 908 c1 -7 7 -24 15 -38 12 -23 14 -23 21 -7 4 12 13 17 25 14
30 -8 22 1 -21 23 -28 14 -40 17 -40 8z m35 -17 c3 -5 1 -12 -4 -15 -5 -3 -11
1 -15 9 -6 16 9 21 19 6z"/>
<path d="M5830 911 c0 -6 5 -21 11 -35 10 -22 13 -23 27 -10 8 8 21 13 28 10
29 -11 12 5 -26 24 -22 11 -40 16 -40 11z m38 -20 c11 -7 11 -9 -1 -14 -9 -3
-18 1 -21 9 -6 16 2 18 22 5z"/>
<path d="M304 843 c-15 -21 -24 -35 -19 -30 5 4 21 -5 37 -20 33 -31 38 -20 6
14 -28 30 -15 43 15 15 13 -12 27 -22 33 -22 5 0 1 5 -8 11 -28 16 -22 32 9
24 l28 -7 -28 26 c-16 14 -32 26 -36 26 -5 0 -21 -17 -37 -37z m47 14 c-1 -12
-15 -9 -19 4 -3 6 1 10 8 8 6 -3 11 -8 11 -12z"/>
<path d="M984 843 c-15 -21 -24 -35 -19 -30 5 4 21 -5 37 -20 33 -31 38 -20 6
14 -28 30 -15 43 15 15 13 -12 27 -22 33 -22 5 0 1 5 -8 11 -30 17 -21 31 15
24 26 -5 29 -4 14 5 -10 7 -29 9 -43 6 -18 -5 -24 -2 -24 9 0 12 6 15 21 10
15 -5 19 -4 15 4 -13 20 -33 11 -62 -26z"/>
<path d="M1664 843 c-15 -21 -24 -35 -19 -30 5 4 21 -5 37 -20 33 -31 38 -20
6 14 -29 31 -14 42 17 13 14 -13 28 -21 31 -17 4 4 -1 9 -10 13 -29 11 -17 26
17 19 l32 -6 -27 16 c-16 9 -28 20 -28 25 0 22 -29 8 -56 -27z m47 14 c-1 -12
-15 -9 -19 4 -3 6 1 10 8 8 6 -3 11 -8 11 -12z"/>
<path d="M2344 843 c-15 -21 -24 -35 -19 -30 5 4 21 -5 37 -20 33 -31 38 -20
6 14 -28 30 -15 43 15 15 13 -12 27 -22 33 -22 5 0 1 5 -9 11 -25 15 -11 30
21 23 23 -4 25 -4 9 6 -10 7 -29 9 -43 6 -18 -5 -24 -2 -24 9 0 12 6 15 21 10
15 -5 19 -4 15 4 -13 20 -33 11 -62 -26z"/>
<path d="M3024 843 c-15 -21 -24 -35 -19 -30 5 4 21 -5 37 -20 33 -31 38 -20
6 14 -28 30 -15 43 15 15 13 -12 27 -22 33 -22 5 0 1 5 -8 11 -28 16 -22 32 9
24 l28 -7 -28 26 c-16 14 -32 26 -36 26 -5 0 -21 -17 -37 -37z m47 14 c-1 -12
-15 -9 -19 4 -3 6 1 10 8 8 6 -3 11 -8 11 -12z"/>
<path d="M3704 843 c-15 -21 -24 -35 -19 -30 5 4 21 -5 37 -20 33 -31 38 -20
6 14 -28 30 -15 43 15 15 13 -12 27 -22 33 -22 5 0 1 5 -8 11 -30 17 -21 31
15 24 26 -5 29 -4 14 5 -10 7 -29 9 -43 6 -18 -5 -24 -2 -24 9 0 12 6 15 21
10 15 -5 19 -4 15 4 -13 20 -33 11 -62 -26z"/>
<path d="M4384 843 c-15 -21 -24 -35 -19 -30 5 4 21 -5 37 -20 33 -31 38 -20
6 14 -29 31 -14 42 17 13 14 -13 28 -21 31 -17 4 4 -1 9 -10 13 -29 11 -17 26
17 19 l32 -6 -27 16 c-16 9 -28 20 -28 25 0 22 -29 8 -56 -27z m47 14 c-1 -12
-15 -9 -19 4 -3 6 1 10 8 8 6 -3 11 -8 11 -12z"/>
<path d="M5064 843 c-15 -21 -24 -35 -19 -30 5 4 21 -5 37 -20 33 -31 38 -20
6 14 -28 30 -15 43 15 15 13 -12 27 -22 33 -22 5 0 1 5 -9 11 -25 15 -11 30
21 23 23 -4 25 -4 9 6 -10 7 -29 9 -43 6 -18 -5 -24 -2 -24 9 0 12 6 15 21 10
15 -5 19 -4 15 4 -13 20 -33 11 -62 -26z"/>
<path d="M5744 843 c-15 -21 -24 -35 -19 -30 5 4 21 -5 37 -20 33 -31 38 -20
6 14 -28 30 -15 43 15 15 13 -12 27 -22 33 -22 5 0 1 5 -8 11 -28 16 -22 32 9
24 l28 -7 -28 26 c-16 14 -32 26 -36 26 -5 0 -21 -17 -37 -37z m47 14 c-1 -12
-15 -9 -19 4 -3 6 1 10 8 8 6 -3 11 -8 11 -12z"/>
<path d="M254 785 c-9 -23 5 -36 32 -29 28 7 33 -10 7 -26 -16 -10 -16 -10 2
-8 12 2 20 11 20 23 0 16 -6 20 -27 18 -29 -2 -40 21 -15 30 9 4 9 6 -1 6 -7
1 -15 -6 -18 -14z"/>
<path d="M934 785 c-9 -23 5 -36 32 -29 28 7 33 -10 7 -26 -16 -10 -16 -10 2
-8 12 2 20 11 20 23 0 16 -6 20 -29 18 -23 -2 -27 1 -23 17 6 23 -1 27 -9 5z"/>
<path d="M1614 785 c-9 -23 5 -36 32 -29 28 7 33 -10 7 -26 -16 -10 -16 -10 2
-8 12 2 20 11 20 23 0 16 -6 20 -27 18 -29 -2 -40 21 -15 30 9 4 9 6 -1 6 -7
1 -15 -6 -18 -14z"/>
<path d="M2294 785 c-9 -23 5 -36 32 -29 28 7 33 -10 7 -26 -16 -10 -16 -10 2
-8 12 2 20 11 20 23 0 16 -6 20 -29 18 -23 -2 -27 1 -23 17 6 23 -1 27 -9 5z"/>
<path d="M2974 785 c-9 -23 5 -36 32 -29 28 7 33 -10 7 -26 -16 -10 -16 -10 2
-8 12 2 20 11 20 23 0 16 -6 20 -27 18 -29 -2 -40 21 -15 30 9 4 9 6 -1 6 -7
1 -15 -6 -18 -14z"/>
<path d="M3654 785 c-9 -23 5 -36 32 -29 28 7 33 -10 7 -26 -16 -10 -16 -10 2
-8 12 2 20 11 20 23 0 16 -6 20 -29 18 -23 -2 -27 1 -23 17 6 23 -1 27 -9 5z"/>
<path d="M4334 785 c-9 -23 5 -36 32 -29 28 7 33 -10 7 -26 -16 -10 -16 -10 2
-8 12 2 20 11 20 23 0 16 -6 20 -27 18 -29 -2 -40 21 -15 30 9 4 9 6 -1 6 -7
1 -15 -6 -18 -14z"/>
<path d="M5014 785 c-9 -23 5 -36 32 -29 28 7 33 -10 7 -26 -16 -10 -16 -10 2
-8 12 2 20 11 20 23 0 16 -6 20 -29 18 -23 -2 -27 1 -23 17 6 23 -1 27 -9 5z"/>
<path d="M5694 785 c-9 -23 5 -36 32 -29 28 7 33 -10 7 -26 -16 -10 -16 -10 2
-8 12 2 20 11 20 23 0 16 -6 20 -27 18 -29 -2 -40 21 -15 30 9 4 9 6 -1 6 -7
1 -15 -6 -18 -14z"/>
<path d="M201 737 c-8 -10 -4 -20 17 -40 26 -25 30 -26 48 -11 17 14 18 15 1
10 -27 -9 -40 3 -25 22 10 14 10 15 -2 5 -21 -19 -33 -16 -27 7 6 23 4 25 -12
7z"/>
<path d="M881 737 c-8 -10 -4 -20 19 -42 27 -26 30 -27 46 -11 15 16 15 17
-10 10 -28 -7 -34 4 -13 26 10 12 9 12 -5 1 -9 -7 -23 -9 -29 -5 -9 5 -7 11 6
21 11 7 14 13 8 13 -6 0 -16 -6 -22 -13z"/>
<path d="M1561 737 c-8 -10 -4 -20 17 -40 26 -25 30 -26 48 -11 17 14 18 15 1
10 -27 -9 -40 3 -25 22 10 14 10 15 -2 5 -21 -19 -33 -16 -27 7 6 23 4 25 -12
7z"/>
<path d="M2241 737 c-8 -10 -4 -20 19 -42 27 -26 30 -27 46 -11 15 16 15 17
-10 10 -28 -7 -34 4 -13 26 10 12 9 12 -5 1 -9 -7 -23 -9 -29 -5 -9 5 -7 11 6
21 11 7 14 13 8 13 -6 0 -16 -6 -22 -13z"/>
<path d="M2921 737 c-8 -10 -4 -20 17 -40 26 -25 30 -26 48 -11 17 14 18 15 1
10 -27 -9 -40 3 -25 22 10 14 10 15 -2 5 -21 -19 -33 -16 -27 7 6 23 4 25 -12
7z"/>
<path d="M3601 737 c-8 -10 -4 -20 19 -42 27 -26 30 -27 46 -11 15 16 15 17
-10 10 -28 -7 -34 4 -13 26 10 12 9 12 -5 1 -9 -7 -23 -9 -29 -5 -9 5 -7 11 6
21 11 7 14 13 8 13 -6 0 -16 -6 -22 -13z"/>
<path d="M4281 737 c-8 -10 -4 -20 17 -40 26 -25 30 -26 48 -11 17 14 18 15 1
10 -27 -9 -40 3 -25 22 10 14 10 15 -2 5 -21 -19 -33 -16 -27 7 6 23 4 25 -12
7z"/>
<path d="M4961 737 c-8 -10 -4 -20 19 -42 27 -26 30 -27 46 -11 15 16 15 17
-10 10 -28 -7 -34 4 -13 26 10 12 9 12 -5 1 -9 -7 -23 -9 -29 -5 -9 5 -7 11 6
21 11 7 14 13 8 13 -6 0 -16 -6 -22 -13z"/>
<path d="M5641 737 c-8 -10 -4 -20 17 -40 26 -25 30 -26 48 -11 17 14 18 15 1
10 -27 -9 -40 3 -25 22 10 14 10 15 -2 5 -21 -19 -33 -16 -27 7 6 23 4 25 -12
7z"/>
<path d="M190 685 c18 -19 21 -28 12 -37 -9 -9 -16 -8 -29 4 -33 28 -48 31
-24 5 14 -15 32 -27 42 -27 36 0 30 60 -8 74 -13 5 -11 0 7 -19z"/>
<path d="M869 686 c23 -24 21 -46 -2 -46 -7 0 -18 9 -25 20 -7 11 -17 20 -24
20 -6 0 -1 -11 12 -25 27 -28 55 -33 64 -9 6 16 -22 63 -38 64 -5 0 1 -11 13
-24z"/>
<path d="M1550 685 c18 -19 21 -28 12 -37 -9 -9 -16 -8 -29 4 -33 28 -48 31
-24 5 14 -15 32 -27 42 -27 36 0 30 60 -8 74 -13 5 -11 0 7 -19z"/>
<path d="M2229 686 c23 -24 21 -46 -2 -46 -7 0 -18 9 -25 20 -7 11 -17 20 -24
20 -6 0 -1 -11 12 -25 27 -28 55 -33 64 -9 6 16 -22 63 -38 64 -5 0 1 -11 13
-24z"/>
<path d="M2910 685 c18 -19 21 -28 12 -37 -9 -9 -16 -8 -29 4 -33 28 -48 31
-24 5 14 -15 32 -27 42 -27 36 0 30 60 -8 74 -13 5 -11 0 7 -19z"/>
<path d="M3589 686 c23 -24 21 -46 -2 -46 -7 0 -18 9 -25 20 -7 11 -17 20 -24
20 -6 0 -1 -11 12 -25 27 -28 55 -33 64 -9 6 16 -22 63 -38 64 -5 0 1 -11 13
-24z"/>
<path d="M4270 685 c18 -19 21 -28 12 -37 -9 -9 -16 -8 -29 4 -33 28 -48 31
-24 5 14 -15 32 -27 42 -27 36 0 30 60 -8 74 -13 5 -11 0 7 -19z"/>
<path d="M4949 686 c23 -24 21 -46 -2 -46 -7 0 -18 9 -25 20 -7 11 -17 20 -24
20 -6 0 -1 -11 12 -25 27 -28 55 -33 64 -9 6 16 -22 63 -38 64 -5 0 1 -11 13
-24z"/>
<path d="M5630 685 c18 -19 21 -28 12 -37 -9 -9 -16 -8 -29 4 -33 28 -48 31
-24 5 14 -15 32 -27 42 -27 36 0 30 60 -8 74 -13 5 -11 0 7 -19z"/>
<path d="M125 624 c14 -34 14 -36 -3 -29 -9 4 -28 10 -42 13 l-25 5 29 -32
c17 -17 34 -31 39 -31 6 0 -3 12 -19 26 -21 19 -24 24 -9 19 50 -18 59 -19 52
-2 -21 51 -21 52 9 27 l29 -25 -29 33 c-39 42 -50 41 -31 -4z"/>
<path d="M801 630 c13 -35 24 -41 13 -7 -6 22 -6 22 22 -3 l29 -25 -29 33
c-37 40 -48 41 -35 2z"/>
<path d="M1485 624 c14 -34 14 -36 -3 -29 -9 4 -28 10 -42 13 l-25 5 29 -32
c17 -17 34 -31 39 -31 6 0 -3 12 -19 26 -21 19 -24 24 -9 19 50 -18 59 -19 52
-2 -21 51 -21 52 9 27 l29 -25 -29 33 c-39 42 -50 41 -31 -4z"/>
<path d="M2161 630 c13 -35 24 -41 13 -7 -6 22 -6 22 22 -3 l29 -25 -29 33
c-37 40 -48 41 -35 2z"/>
<path d="M2845 624 c14 -34 14 -36 -3 -29 -9 4 -28 10 -42 13 l-25 5 29 -32
c17 -17 34 -31 39 -31 6 0 -3 12 -19 26 -21 19 -24 24 -9 19 50 -18 59 -19 52
-2 -21 51 -21 52 9 27 l29 -25 -29 33 c-39 42 -50 41 -31 -4z"/>
<path d="M3521 630 c13 -35 24 -41 13 -7 -6 22 -6 22 22 -3 l29 -25 -29 33
c-37 40 -48 41 -35 2z"/>
<path d="M4205 624 c14 -34 14 -36 -3 -29 -9 4 -28 10 -42 13 l-25 5 29 -32
c17 -17 34 -31 39 -31 6 0 -3 12 -19 26 -21 19 -24 24 -9 19 50 -18 59 -19 52
-2 -21 51 -21 52 9 27 l29 -25 -29 33 c-39 42 -50 41 -31 -4z"/>
<path d="M4881 630 c13 -35 24 -41 13 -7 -6 22 -6 22 22 -3 l29 -25 -29 33
c-37 40 -48 41 -35 2z"/>
<path d="M5565 624 c14 -34 14 -36 -3 -29 -9 4 -28 10 -42 13 l-25 5 29 -32
c17 -17 34 -31 39 -31 6 0 -3 12 -19 26 -21 19 -24 24 -9 19 50 -18 59 -19 52
-2 -21 51 -21 52 9 27 l29 -25 -29 33 c-39 42 -50 41 -31 -4z"/>
<path d="M740 607 c0 -2 15 -16 33 -33 17 -16 26 -22 20 -14 -20 22 -15 31 15
25 24 -5 23 -4 -7 10 -30 14 -61 20 -61 12z"/>
<path d="M2100 607 c0 -2 15 -16 33 -33 17 -16 26 -22 20 -14 -20 22 -15 31
15 25 24 -5 23 -4 -7 10 -30 14 -61 20 -61 12z"/>
<path d="M3460 607 c0 -2 15 -16 33 -33 17 -16 26 -22 20 -14 -20 22 -15 31
15 25 24 -5 23 -4 -7 10 -30 14 -61 20 -61 12z"/>
<path d="M4820 607 c0 -2 15 -16 33 -33 17 -16 26 -22 20 -14 -20 22 -15 31
15 25 24 -5 23 -4 -7 10 -30 14 -61 20 -61 12z"/>
<path d="M390 408 c1 -7 10 -29 21 -48 11 -19 17 -25 14 -14 -6 22 17 40 36
28 5 -3 9 -3 9 0 0 3 -18 15 -40 26 -28 14 -40 17 -40 8z m35 -17 c3 -5 1 -12
-4 -15 -5 -3 -11 1 -15 9 -6 16 9 21 19 6z"/>
<path d="M1070 411 c0 -6 5 -22 12 -36 10 -23 13 -24 29 -9 10 9 23 13 28 9 6
-3 11 -4 11 -1 0 3 -18 15 -40 26 -22 11 -40 16 -40 11z m35 -20 c3 -5 1 -12
-4 -15 -5 -3 -11 1 -15 9 -6 16 9 21 19 6z"/>
<path d="M1750 408 c1 -7 10 -29 21 -48 11 -19 17 -25 14 -14 -6 22 17 40 36
28 5 -3 9 -3 9 0 0 3 -18 15 -40 26 -28 14 -40 17 -40 8z m35 -17 c3 -5 1 -12
-4 -15 -5 -3 -11 1 -15 9 -6 16 9 21 19 6z"/>
<path d="M2430 411 c0 -6 5 -22 12 -36 10 -23 13 -24 29 -9 10 9 23 13 28 9 6
-3 11 -4 11 -1 0 3 -18 15 -40 26 -22 11 -40 16 -40 11z m35 -20 c3 -5 1 -12
-4 -15 -5 -3 -11 1 -15 9 -6 16 9 21 19 6z"/>
<path d="M3110 408 c1 -7 10 -29 21 -48 11 -19 17 -25 14 -14 -6 22 17 40 36
28 5 -3 9 -3 9 0 0 3 -18 15 -40 26 -28 14 -40 17 -40 8z m35 -17 c3 -5 1 -12
-4 -15 -5 -3 -11 1 -15 9 -6 16 9 21 19 6z"/>
<path d="M3790 411 c0 -6 5 -22 12 -36 10 -23 13 -24 29 -9 10 9 23 13 28 9 6
-3 11 -4 11 -1 0 3 -18 15 -40 26 -22 11 -40 16 -40 11z m35 -20 c3 -5 1 -12
-4 -15 -5 -3 -11 1 -15 9 -6 16 9 21 19 6z"/>
<path d="M4470 408 c1 -7 10 -29 21 -48 11 -19 17 -25 14 -14 -6 22 17 40 36
28 5 -3 9 -3 9 0 0 3 -18 15 -40 26 -28 14 -40 17 -40 8z m35 -17 c3 -5 1 -12
-4 -15 -5 -3 -11 1 -15 9 -6 16 9 21 19 6z"/>
<path d="M5150 411 c0 -6 5 -22 12 -36 10 -23 13 -24 29 -9 10 9 23 13 28 9 6
-3 11 -4 11 -1 0 3 -18 15 -40 26 -22 11 -40 16 -40 11z m35 -20 c3 -5 1 -12
-4 -15 -5 -3 -11 1 -15 9 -6 16 9 21 19 6z"/>
<path d="M5830 408 c1 -7 10 -29 21 -48 11 -19 17 -25 14 -14 -6 22 17 40 36
28 5 -3 9 -3 9 0 0 3 -18 15 -40 26 -28 14 -40 17 -40 8z m35 -17 c3 -5 1 -12
-4 -15 -5 -3 -11 1 -15 9 -6 16 9 21 19 6z"/>
<path d="M304 343 c-15 -20 -23 -34 -17 -30 5 4 21 -5 33 -18 13 -14 28 -25
34 -25 5 0 -3 13 -19 30 -34 36 -26 53 10 20 14 -13 28 -20 32 -17 3 4 2 7 -4
7 -6 0 -14 7 -17 16 -5 13 -1 15 21 9 l28 -7 -28 26 c-16 14 -32 26 -36 26 -5
0 -21 -17 -37 -37z m51 18 c7 -12 -12 -24 -25 -16 -11 7 -4 25 10 25 5 0 11
-4 15 -9z"/>
<path d="M984 343 c-15 -20 -23 -34 -17 -30 5 4 21 -5 33 -18 13 -14 28 -25
34 -25 5 0 -3 13 -19 30 -34 35 -26 54 9 21 l25 -23 -6 22 c-5 19 -3 21 17 15
16 -5 20 -4 15 5 -4 6 -18 10 -33 8 -15 -2 -27 3 -30 11 -3 10 1 12 17 8 11
-3 19 -1 15 4 -11 18 -32 8 -60 -28z"/>
<path d="M1664 343 c-15 -20 -23 -34 -17 -30 5 4 21 -5 33 -18 13 -14 28 -25
34 -25 5 0 -3 13 -19 30 -34 36 -26 53 10 20 14 -13 28 -20 32 -17 3 4 2 7 -4
7 -6 0 -14 7 -17 16 -5 13 -1 15 21 9 l28 -7 -28 26 c-16 14 -32 26 -36 26 -5
0 -21 -17 -37 -37z m51 18 c7 -12 -12 -24 -25 -16 -11 7 -4 25 10 25 5 0 11
-4 15 -9z"/>
<path d="M2344 343 c-15 -20 -23 -34 -17 -30 5 4 21 -5 33 -18 13 -14 28 -25
34 -25 5 0 -3 13 -19 30 -34 35 -26 54 9 21 l25 -23 -6 22 c-5 19 -3 21 17 15
16 -5 20 -4 15 5 -4 6 -18 10 -33 8 -15 -2 -27 3 -30 11 -3 10 1 12 17 8 11
-3 19 -1 15 4 -11 18 -32 8 -60 -28z"/>
<path d="M3024 343 c-15 -20 -23 -34 -17 -30 5 4 21 -5 33 -18 13 -14 28 -25
34 -25 5 0 -3 13 -19 30 -34 36 -26 53 10 20 14 -13 28 -20 32 -17 3 4 2 7 -4
7 -6 0 -14 7 -17 16 -5 13 -1 15 21 9 l28 -7 -28 26 c-16 14 -32 26 -36 26 -5
0 -21 -17 -37 -37z m51 18 c7 -12 -12 -24 -25 -16 -11 7 -4 25 10 25 5 0 11
-4 15 -9z"/>
<path d="M3704 343 c-15 -20 -23 -34 -17 -30 5 4 21 -5 33 -18 13 -14 28 -25
34 -25 5 0 -3 13 -19 30 -34 35 -26 54 9 21 l25 -23 -6 22 c-5 19 -3 21 17 15
16 -5 20 -4 15 5 -4 6 -18 10 -33 8 -15 -2 -27 3 -30 11 -3 10 1 12 17 8 11
-3 19 -1 15 4 -11 18 -32 8 -60 -28z"/>
<path d="M4384 343 c-15 -20 -23 -34 -17 -30 5 4 21 -5 33 -18 13 -14 28 -25
34 -25 5 0 -3 13 -19 30 -34 36 -26 53 10 20 14 -13 28 -20 32 -17 3 4 2 7 -4
7 -6 0 -14 7 -17 16 -5 13 -1 15 21 9 l28 -7 -28 26 c-16 14 -32 26 -36 26 -5
0 -21 -17 -37 -37z m51 18 c7 -12 -12 -24 -25 -16 -11 7 -4 25 10 25 5 0 11
-4 15 -9z"/>
<path d="M5064 343 c-15 -20 -23 -34 -17 -30 5 4 21 -5 33 -18 13 -14 28 -25
34 -25 5 0 -3 13 -19 30 -34 35 -26 54 9 21 l25 -23 -6 22 c-5 19 -3 21 17 15
16 -5 20 -4 15 5 -4 6 -18 10 -33 8 -15 -2 -27 3 -30 11 -3 10 1 12 17 8 11
-3 19 -1 15 4 -11 18 -32 8 -60 -28z"/>
<path d="M5744 343 c-15 -20 -23 -34 -17 -30 5 4 21 -5 33 -18 13 -14 28 -25
34 -25 5 0 -3 13 -19 30 -34 36 -26 53 10 20 14 -13 28 -20 32 -17 3 4 2 7 -4
7 -6 0 -14 7 -17 16 -5 13 -1 15 21 9 l28 -7 -28 26 c-16 14 -32 26 -36 26 -5
0 -21 -17 -37 -37z m51 18 c7 -12 -12 -24 -25 -16 -11 7 -4 25 10 25 5 0 11
-4 15 -9z"/>
<path d="M254 285 c-9 -23 5 -36 32 -29 28 7 33 -10 7 -25 -16 -9 -16 -10 -2
-11 18 0 33 26 23 42 -3 5 -18 7 -31 3 -22 -5 -25 -3 -20 14 6 24 -1 28 -9 6z"/>
<path d="M1614 285 c-9 -23 5 -36 32 -29 28 7 33 -10 7 -25 -16 -9 -16 -10 -2
-11 18 0 33 26 23 42 -3 5 -18 7 -31 3 -22 -5 -25 -3 -20 14 6 24 -1 28 -9 6z"/>
<path d="M2974 285 c-9 -23 5 -36 32 -29 28 7 33 -10 7 -25 -16 -9 -16 -10 -2
-11 18 0 33 26 23 42 -3 5 -18 7 -31 3 -22 -5 -25 -3 -20 14 6 24 -1 28 -9 6z"/>
<path d="M4334 285 c-9 -23 5 -36 32 -29 28 7 33 -10 7 -25 -16 -9 -16 -10 -2
-11 18 0 33 26 23 42 -3 5 -18 7 -31 3 -22 -5 -25 -3 -20 14 6 24 -1 28 -9 6z"/>
<path d="M5694 285 c-9 -23 5 -36 32 -29 28 7 33 -10 7 -25 -16 -9 -16 -10 -2
-11 18 0 33 26 23 42 -3 5 -18 7 -31 3 -22 -5 -25 -3 -20 14 6 24 -1 28 -9 6z"/>
<path d="M936 258 c3 -5 16 -5 30 -2 28 7 33 -10 7 -26 -16 -10 -16 -10 2 -8
12 2 20 11 20 23 0 16 -7 20 -32 20 -17 1 -29 -3 -27 -7z"/>
<path d="M2296 258 c3 -5 16 -5 30 -2 28 7 33 -10 7 -26 -16 -10 -16 -10 2 -8
12 2 20 11 20 23 0 16 -7 20 -32 20 -17 1 -29 -3 -27 -7z"/>
<path d="M3656 258 c3 -5 16 -5 30 -2 28 7 33 -10 7 -26 -16 -10 -16 -10 2 -8
12 2 20 11 20 23 0 16 -7 20 -32 20 -17 1 -29 -3 -27 -7z"/>
<path d="M5016 258 c3 -5 16 -5 30 -2 28 7 33 -10 7 -26 -16 -10 -16 -10 2 -8
12 2 20 11 20 23 0 16 -7 20 -32 20 -17 1 -29 -3 -27 -7z"/>
<path d="M201 237 c-8 -10 -4 -20 17 -40 25 -23 29 -24 47 -11 19 15 19 15 -7
9 -30 -8 -36 2 -15 25 10 12 9 12 -5 2 -12 -10 -18 -10 -23 -1 -4 6 -1 15 6
20 8 5 9 9 3 9 -6 0 -17 -6 -23 -13z"/>
<path d="M881 237 c-8 -10 -4 -20 19 -42 27 -25 30 -26 45 -11 9 9 12 16 6 16
-5 0 -13 -5 -17 -11 -4 -8 -9 -7 -15 2 -4 8 -3 20 4 29 10 13 10 13 -5 2 -9
-8 -23 -10 -29 -6 -9 5 -7 11 6 21 11 7 14 13 8 13 -6 0 -16 -6 -22 -13z"/>
<path d="M1561 237 c-8 -10 -4 -20 17 -40 25 -23 29 -24 47 -11 19 15 19 15
-7 9 -30 -8 -36 2 -15 25 10 12 9 12 -5 2 -12 -10 -18 -10 -23 -1 -4 6 -1 15
6 20 8 5 9 9 3 9 -6 0 -17 -6 -23 -13z"/>
<path d="M2241 237 c-8 -10 -4 -20 19 -42 27 -25 30 -26 45 -11 9 9 12 16 6
16 -5 0 -13 -5 -17 -11 -4 -8 -9 -7 -15 2 -4 8 -3 20 4 29 10 13 10 13 -5 2
-9 -8 -23 -10 -29 -6 -9 5 -7 11 6 21 11 7 14 13 8 13 -6 0 -16 -6 -22 -13z"/>
<path d="M2921 237 c-8 -10 -4 -20 17 -40 25 -23 29 -24 47 -11 19 15 19 15
-7 9 -30 -8 -36 2 -15 25 10 12 9 12 -5 2 -12 -10 -18 -10 -23 -1 -4 6 -1 15
6 20 8 5 9 9 3 9 -6 0 -17 -6 -23 -13z"/>
<path d="M3601 237 c-8 -10 -4 -20 19 -42 27 -25 30 -26 45 -11 9 9 12 16 6
16 -5 0 -13 -5 -17 -11 -4 -8 -9 -7 -15 2 -4 8 -3 20 4 29 10 13 10 13 -5 2
-9 -8 -23 -10 -29 -6 -9 5 -7 11 6 21 11 7 14 13 8 13 -6 0 -16 -6 -22 -13z"/>
<path d="M4281 237 c-8 -10 -4 -20 17 -40 25 -23 29 -24 47 -11 19 15 19 15
-7 9 -30 -8 -36 2 -15 25 10 12 9 12 -5 2 -12 -10 -18 -10 -23 -1 -4 6 -1 15
6 20 8 5 9 9 3 9 -6 0 -17 -6 -23 -13z"/>
<path d="M4961 237 c-8 -10 -4 -20 19 -42 27 -25 30 -26 45 -11 9 9 12 16 6
16 -5 0 -13 -5 -17 -11 -4 -8 -9 -7 -15 2 -4 8 -3 20 4 29 10 13 10 13 -5 2
-9 -8 -23 -10 -29 -6 -9 5 -7 11 6 21 11 7 14 13 8 13 -6 0 -16 -6 -22 -13z"/>
<path d="M5641 237 c-8 -10 -4 -20 17 -40 25 -23 29 -24 47 -11 19 15 19 15
-7 9 -30 -8 -36 2 -15 25 10 12 9 12 -5 2 -12 -10 -18 -10 -23 -1 -4 6 -1 15
6 20 8 5 9 9 3 9 -6 0 -17 -6 -23 -13z"/>
<path d="M189 188 c12 -15 20 -31 16 -37 -9 -16 -19 -14 -45 9 -32 28 -38 25
-10 -5 30 -32 65 -30 65 4 0 14 -10 30 -25 39 l-25 16 24 -26z"/>
<path d="M869 186 c23 -24 21 -46 -2 -46 -7 0 -18 9 -25 20 -7 11 -17 20 -24
20 -6 0 -1 -11 12 -25 27 -29 63 -30 68 -2 2 11 -5 27 -17 38 -29 27 -39 23
-12 -5z"/>
<path d="M1549 188 c12 -15 20 -31 16 -37 -9 -16 -19 -14 -45 9 -32 28 -38 25
-10 -5 30 -32 65 -30 65 4 0 14 -10 30 -25 39 l-25 16 24 -26z"/>
<path d="M2229 186 c23 -24 21 -46 -2 -46 -7 0 -18 9 -25 20 -7 11 -17 20 -24
20 -6 0 -1 -11 12 -25 27 -29 63 -30 68 -2 2 11 -5 27 -17 38 -29 27 -39 23
-12 -5z"/>
<path d="M2909 188 c12 -15 20 -31 16 -37 -9 -16 -19 -14 -45 9 -32 28 -38 25
-10 -5 30 -32 65 -30 65 4 0 14 -10 30 -25 39 l-25 16 24 -26z"/>
<path d="M3589 186 c23 -24 21 -46 -2 -46 -7 0 -18 9 -25 20 -7 11 -17 20 -24
20 -6 0 -1 -11 12 -25 27 -29 63 -30 68 -2 2 11 -5 27 -17 38 -29 27 -39 23
-12 -5z"/>
<path d="M4269 188 c12 -15 20 -31 16 -37 -9 -16 -19 -14 -45 9 -32 28 -38 25
-10 -5 30 -32 65 -30 65 4 0 14 -10 30 -25 39 l-25 16 24 -26z"/>
<path d="M4949 186 c23 -24 21 -46 -2 -46 -7 0 -18 9 -25 20 -7 11 -17 20 -24
20 -6 0 -1 -11 12 -25 27 -29 63 -30 68 -2 2 11 -5 27 -17 38 -29 27 -39 23
-12 -5z"/>
<path d="M5629 188 c12 -15 20 -31 16 -37 -9 -16 -19 -14 -45 9 -32 28 -38 25
-10 -5 30 -32 65 -30 65 4 0 14 -10 30 -25 39 l-25 16 24 -26z"/>
<path d="M117 145 c3 -9 8 -13 11 -10 3 3 17 -5 31 -17 21 -19 20 -17 -3 10
-32 34 -49 42 -39 17z"/>
<path d="M801 130 c13 -35 24 -41 13 -7 -6 22 -6 22 22 -3 l29 -25 -29 33
c-37 40 -48 41 -35 2z"/>
<path d="M1477 145 c3 -9 8 -13 11 -10 3 3 17 -5 31 -17 21 -19 20 -17 -3 10
-32 34 -49 42 -39 17z"/>
<path d="M2161 130 c13 -35 24 -41 13 -7 -6 22 -6 22 22 -3 l29 -25 -29 33
c-37 40 -48 41 -35 2z"/>
<path d="M2837 145 c3 -9 8 -13 11 -10 3 3 17 -5 31 -17 21 -19 20 -17 -3 10
-32 34 -49 42 -39 17z"/>
<path d="M3521 130 c13 -35 24 -41 13 -7 -6 22 -6 22 22 -3 l29 -25 -29 33
c-37 40 -48 41 -35 2z"/>
<path d="M4197 145 c3 -9 8 -13 11 -10 3 3 17 -5 31 -17 21 -19 20 -17 -3 10
-32 34 -49 42 -39 17z"/>
<path d="M4881 130 c13 -35 24 -41 13 -7 -6 22 -6 22 22 -3 l29 -25 -29 33
c-37 40 -48 41 -35 2z"/>
<path d="M5557 145 c3 -9 8 -13 11 -10 3 3 17 -5 31 -17 21 -19 20 -17 -3 10
-32 34 -49 42 -39 17z"/>
<path d="M134 108 c6 -21 2 -22 -25 -7 -11 5 -27 9 -35 7 -12 -2 -8 -11 15
-32 17 -17 31 -27 31 -23 0 3 -10 16 -22 28 -21 20 -21 21 -3 14 56 -21 67
-17 44 15 -9 13 -10 12 -5 -2z"/>
<path d="M1494 108 c6 -21 2 -22 -25 -7 -11 5 -27 9 -35 7 -12 -2 -8 -11 15
-32 17 -17 31 -27 31 -23 0 3 -10 16 -22 28 -21 20 -21 21 -3 14 56 -21 67
-17 44 15 -9 13 -10 12 -5 -2z"/>
<path d="M2854 108 c6 -21 2 -22 -25 -7 -11 5 -27 9 -35 7 -12 -2 -8 -11 15
-32 17 -17 31 -27 31 -23 0 3 -10 16 -22 28 -21 20 -21 21 -3 14 56 -21 67
-17 44 15 -9 13 -10 12 -5 -2z"/>
<path d="M4214 108 c6 -21 2 -22 -25 -7 -11 5 -27 9 -35 7 -12 -2 -8 -11 15
-32 17 -17 31 -27 31 -23 0 3 -10 16 -22 28 -21 20 -21 21 -3 14 56 -21 67
-17 44 15 -9 13 -10 12 -5 -2z"/>
<path d="M5574 108 c6 -21 2 -22 -25 -7 -11 5 -27 9 -35 7 -12 -2 -8 -11 15
-32 17 -17 31 -27 31 -23 0 3 -10 16 -22 28 -21 20 -21 21 -3 14 56 -21 67
-17 44 15 -9 13 -10 12 -5 -2z"/>
<path d="M740 107 c0 -2 15 -16 32 -33 18 -16 25 -20 15 -8 -22 27 -22 37 2
24 11 -5 26 -10 33 -10 17 1 -50 30 -68 30 -8 0 -14 -1 -14 -3z"/>
<path d="M2100 107 c0 -2 15 -16 32 -33 18 -16 25 -20 15 -8 -22 27 -22 37 2
24 11 -5 26 -10 33 -10 17 1 -50 30 -68 30 -8 0 -14 -1 -14 -3z"/>
<path d="M3460 107 c0 -2 15 -16 32 -33 18 -16 25 -20 15 -8 -22 27 -22 37 2
24 11 -5 26 -10 33 -10 17 1 -50 30 -68 30 -8 0 -14 -1 -14 -3z"/>
<path d="M4820 107 c0 -2 15 -16 32 -33 18 -16 25 -20 15 -8 -22 27 -22 37 2
24 11 -5 26 -10 33 -10 17 1 -50 30 -68 30 -8 0 -14 -1 -14 -3z"/>
</g>
</svg>
